<?xml version="1.0" encoding="utf-8"?>
<!-- Generator: Adobe Illustrator 27.5.0, SVG Export Plug-In . SVG Version: 6.00 Build 0)  -->
<svg version="1.1" xmlns="http://www.w3.org/2000/svg" xmlns:xlink="http://www.w3.org/1999/xlink" x="0px" y="0px"
	 viewBox="0 0 500 500" style="enable-background:new 0 0 500 500;" xml:space="preserve">
<g id="BACKGROUND">
	<rect style="fill:#F4ECE1;" width="500" height="500"/>
</g>
<g id="OBJECTS">
	<g>
		<g>
			<g>
				<g>
					<g>
						<g>
							<path style="fill:#C29659;" d="M117.243,393.45c-10.675-1.604-14.194-12.012-13.494-21.517
								c0.322-4.364,1.008-8.887-0.679-13.072c-1.984-4.924-6.677-7.291-10.865-10.072c-4.068-2.7-8.337-5.614-11.03-9.787
								c-3.99-6.181-2.584-12.867-2.26-19.76c0.308-6.536-0.271-12.736-5.584-17.047c-0.357,0.557-0.714,1.114-1.07,1.67
								c9.076,3.058,14.107,10.068,17.392,18.673c1.287,3.371,2.734,7,5.528,9.431c2.993,2.605,6.951,3.454,10.647,4.562
								c5.478,1.643,10.713,4.164,14.078,8.977c3.542,5.068,3.83,11.154,5.136,16.994c2.022,9.044,6.767,13.913,15.177,17.587
								c1.18,0.515,2.036-1.292,0.855-1.808c-4.878-2.131-9.534-4.712-11.983-9.658c-2.257-4.56-2.547-9.755-3.607-14.649
								c-2.128-9.832-8.491-15.953-17.901-18.983c-4.373-1.408-9.269-2.124-12.362-5.868c-3.204-3.878-3.929-9.154-6.154-13.539
								c-3.152-6.214-9.345-11.302-15.953-13.529c-1.004-0.338-2.023,0.898-1.07,1.67c8.412,6.824,3.294,18.416,4.373,27.578
								c1.172,9.951,8.979,15.405,16.771,20.491c7.108,4.639,9.419,8.936,8.81,17.262c-0.364,4.972-0.955,9.962,0.833,14.757
								c2.203,5.909,7.74,10.654,14.049,11.602C118.154,395.609,118.517,393.642,117.243,393.45L117.243,393.45z"/>
						</g>
					</g>
					<g>
						<g>
							<path style="fill:#C29659;" d="M126.677,387.352c-2.664-0.642-5.235-2.428-6.954-4.514
								c-3.999-4.853-2.901-10.82-2.777-16.621c0.187-8.803-2.176-15.868-10.349-20.065c-5.332-2.738-11.305-3.874-15.9-7.988
								c-4.126-3.694-5.687-8.866-6.401-14.197c-0.651-4.866-0.762-10.005-3.159-14.429c-1.804-3.33-4.747-5.27-7.806-7.342
								c-1.057-0.716-2.352,0.81-1.286,1.532c3.834,2.597,6.99,4.957,8.496,9.558c1.893,5.786,1.319,12.055,3.285,17.841
								c3.58,10.535,13.065,12.243,21.916,16.833c5.285,2.741,8.326,6.803,9.017,12.745c0.641,5.509-0.886,11.145,0.236,16.581
								c1.175,5.694,5.579,10.648,11.32,12.033C127.569,389.622,127.924,387.652,126.677,387.352L126.677,387.352z"/>
						</g>
					</g>
				</g>
				<g>
					<g>
						<path style="fill:#C29659;" d="M113.261,344.629c5.807,2.849,6.258,11.32,7.581,16.806c1.888,7.828,6.253,13.711,12.71,18.462
							c1.033,0.76,2.325-0.767,1.286-1.532c-8.461-6.226-11.098-13.374-13.254-23.167c-0.981-4.458-3.03-10.201-7.467-12.378
							C112.957,342.252,112.105,344.062,113.261,344.629L113.261,344.629z"/>
					</g>
				</g>
				<g>
					<g>
						<path style="fill:#C29659;" d="M119.201,392.495c-8.239-4.025-12.844-12.862-11.55-21.739
							c0.186-1.273-1.782-1.637-1.968-0.362c-1.43,9.811,3.538,19.452,12.662,23.909C119.506,394.87,120.358,393.06,119.201,392.495
							L119.201,392.495z"/>
					</g>
				</g>
				<g>
					<g>
						<path style="fill:#C29659;" d="M103.286,348.908c-5.303-1.329-10.883-3.865-15.092-7.35
							c-3.704-3.066-6.062-6.736-6.449-11.539c-0.207-2.572,0.242-5.155-0.173-7.711c-0.205-1.263-2.199-1.099-1.992,0.174
							c0.542,3.337-0.198,6.723,0.487,10.068c0.77,3.765,2.855,6.978,5.679,9.547c4.717,4.29,11.018,7.235,17.179,8.779
							C104.175,351.189,104.529,349.219,103.286,348.908L103.286,348.908z"/>
					</g>
				</g>
			</g>
			<g>
				<g>
					<g>
						<path style="fill:#C29659;" d="M152.034,375.983c3.536-0.332,6.044,4.584,3.702,7.264c-0.849,0.971,0.684,2.255,1.532,1.286
							c3.49-3.993-0.172-11.033-5.408-10.542C150.579,374.111,150.75,376.104,152.034,375.983L152.034,375.983z"/>
					</g>
				</g>
				<g>
					<g>
						<path style="fill:#C29659;" d="M112.984,410.526c-3.945,1.205-6.72-3.426-4.922-6.732c0.617-1.134-1.196-1.982-1.808-0.855
							c-2.691,4.949,1.887,11.154,7.428,9.462C114.912,412.025,114.214,410.151,112.984,410.526L112.984,410.526z"/>
					</g>
				</g>
				<g>
					<g>
						<path style="fill:#C29659;" d="M118.741,398.3c7.807-5.047,15.615-10.095,23.422-15.142c1.081-0.699-0.075-2.331-1.156-1.632
							c-7.807,5.047-15.615,10.094-23.422,15.142C116.504,397.367,117.66,398.999,118.741,398.3L118.741,398.3z"/>
					</g>
				</g>
			</g>
			<g>
				<g>
					<g>
						<path style="fill:#C29659;" d="M128.358,405.129c6.991,2.361,13.049-6.384,19.634-3.555c1.182,0.508,2.039-1.299,0.855-1.808
							c-7.063-3.035-12.87,5.839-19.634,3.555C128.005,402.913,127.14,404.717,128.358,405.129L128.358,405.129z"/>
					</g>
				</g>
				<g>
					<g>
						<path style="fill:#C29659;" d="M135.992,416.939c6.991,2.361,13.049-6.384,19.634-3.555c1.182,0.508,2.039-1.299,0.855-1.808
							c-7.063-3.035-12.87,5.839-19.634,3.555C135.64,414.722,134.775,416.527,135.992,416.939L135.992,416.939z"/>
					</g>
				</g>
				<g>
					<g>
						<path style="fill:#C29659;" d="M142.881,427.594c6.991,2.361,13.049-6.384,19.634-3.555c1.182,0.508,2.039-1.299,0.855-1.808
							c-7.063-3.035-12.87,5.839-19.634,3.555C142.528,425.378,141.663,427.183,142.881,427.594L142.881,427.594z"/>
					</g>
				</g>
				<g>
					<g>
						<path style="fill:#C29659;" d="M149.769,438.25c6.991,2.361,13.049-6.384,19.634-3.555c1.182,0.508,2.039-1.299,0.855-1.808
							c-7.063-3.035-12.87,5.839-19.634,3.555C149.417,436.034,148.551,437.838,149.769,438.25L149.769,438.25z"/>
					</g>
				</g>
			</g>
		</g>
		<g>
			<g>
				<g>
					<path style="fill:#49392C;" d="M147.572,381.145c0.117,5.78,8.219,5.655,8.423-0.006c0.262-7.275-11.272-6.132-11.719,0.926
						c-0.593,9.373,13.272,8.237,15.88,1.005c1.35-3.742-0.633-7.648-3.818-9.739c-4.853-3.185-9.219,0.21-13.219,3.049
						c-9.772,6.938-20.178,13.539-30.436,19.74c-3.258,1.969-7.644,3.729-8.908,7.685c-1.155,3.614,0.754,8.311,4.043,10.159
						c6.455,3.626,15.37-3.769,12.035-10.741c-3.5-7.316-16.157-1.251-11.314,5.335c4.467,6.076,12.722-2.779,5.929-5.677
						c-1.183-0.505-2.041,1.302-0.855,1.808c2.222,0.948-0.245,4.802-2.475,3.495c-1.623-3.902-0.792-6.026,2.492-6.371
						c0.57,0.011,1.14,0.021,1.71,0.032c6.161,1.71,2.402,9.556-1.987,10.815c-5.438,1.561-10.047-5.275-6.844-9.826
						c1.449-2.059,4.188-3.244,6.284-4.473c5.103-2.993,9.998-6.368,14.965-9.58c4.419-2.857,8.849-5.697,13.257-8.57
						c4.426-2.885,10.259-9.172,15.416-4.263c5.594,5.325-2.638,15.198-8.271,9.69c-1.847-1.053-2.314-2.791-1.402-5.215
						c3.51-3.289,5.576-3.322,6.197-0.099c1.696,2.608,0.579,3.009-3.352,1.205c-0.026-0.186-0.038-0.372-0.039-0.559
						C149.538,379.683,147.546,379.862,147.572,381.145L147.572,381.145z"/>
				</g>
			</g>
			<g>
				<g>
					<path style="fill:#49392C;" d="M119.266,403.957c9.18-5.935,18.36-11.869,27.54-17.804c1.081-0.699-0.075-2.331-1.156-1.632
						c-9.18,5.935-18.36,11.869-27.54,17.804C117.028,403.024,118.184,404.656,119.266,403.957L119.266,403.957z"/>
				</g>
			</g>
		</g>
		<g>
			<g>
				<g>
					<path style="fill:#49392C;" d="M175.416,432.833c-10.094-15.613-20.188-31.227-30.281-46.841
						c-0.699-1.081-2.331,0.075-1.632,1.156c10.094,15.614,20.188,31.227,30.281,46.841
						C174.483,435.071,176.115,433.915,175.416,432.833L175.416,432.833z"/>
				</g>
			</g>
			<g>
				<g>
					<path style="fill:#49392C;" d="M119.516,402.656c10.094,15.614,20.187,31.227,30.281,46.841
						c0.699,1.081,2.331-0.075,1.632-1.156c-10.094-15.614-20.188-31.227-30.281-46.841
						C120.449,400.418,118.817,401.574,119.516,402.656L119.516,402.656z"/>
				</g>
			</g>
			<g>
				<g>
					<path style="fill:#49392C;" d="M123.596,408.967c2.033,2.443,5.532,3.238,8.565,3.08c6.874-0.358,19.603-10.56,25.421-3.12
						c0.79,1.01,2.428-0.138,1.632-1.156c-8.865-11.336-25.808,9.87-33.986,0.04C124.411,406.828,122.77,407.974,123.596,408.967
						L123.596,408.967z"/>
				</g>
			</g>
			<g>
				<g>
					<path style="fill:#49392C;" d="M130.621,419.834c2.033,2.443,5.532,3.238,8.565,3.08c6.874-0.358,19.603-10.56,25.421-3.12
						c0.79,1.01,2.428-0.138,1.632-1.156c-8.865-11.336-25.808,9.87-33.986,0.039C131.436,417.695,129.795,418.841,130.621,419.834
						L130.621,419.834z"/>
				</g>
			</g>
			<g>
				<g>
					<path style="fill:#49392C;" d="M123.339,401.186c4.624-0.049,8.346-2.012,12.55-3.701c3.914-1.573,11.378-3.656,14.581,0.439
						c0.79,1.01,2.428-0.138,1.632-1.156c-6.952-8.89-20.951,2.341-28.937,2.426C121.877,399.208,122.058,401.2,123.339,401.186
						L123.339,401.186z"/>
				</g>
			</g>
			<g>
				<g>
					<path style="fill:#49392C;" d="M137.646,430.701c2.033,2.443,5.532,3.238,8.565,3.08c6.874-0.358,19.603-10.56,25.421-3.12
						c0.79,1.01,2.428-0.138,1.632-1.156c-8.865-11.336-25.808,9.87-33.986,0.039C138.461,428.562,136.82,429.708,137.646,430.701
						L137.646,430.701z"/>
				</g>
			</g>
			<g>
				<g>
					<path style="fill:#49392C;" d="M144.671,441.568c5.633,6.859,15.482,0.924,21.55-1.577c1.186-0.489,0.497-2.367-0.698-1.875
						c-5.113,2.108-14.393,8.173-19.22,2.296C145.492,439.423,143.852,440.57,144.671,441.568L144.671,441.568z"/>
				</g>
			</g>
		</g>
		<g>
			<g>
				<g>
					<path style="fill:#C29659;" d="M178.935,438.04c-4.463,2.885-8.927,5.771-13.39,8.656c-2.988,1.931-5.975,3.863-8.963,5.794
						c-0.859,0.556-1.82,1.451-2.781,1.798c-2.234,0.807-6.779,0.323-3.488-3.755c0.894-1.108,3.033-1.961,4.211-2.723
						c3.06-1.978,6.119-3.956,9.179-5.934c2.886-1.865,5.771-3.731,8.657-5.596c0.906-0.586,1.917-1.463,2.916-1.885
						C177.495,433.458,183.123,434.263,178.935,438.04c-0.944,0.851,0.199,2.495,1.156,1.632c4.835-4.36-0.348-10.209-5.657-7.113
						c-6.378,3.72-12.467,8.06-18.668,12.068c-3.148,2.035-11.255,5.449-7.893,10.538c3.36,5.085,10.064-1.172,13.24-3.225
						c6.326-4.089,12.651-8.179,18.977-12.268C181.173,438.974,180.016,437.341,178.935,438.04z"/>
				</g>
			</g>
			<g>
				<g>
					<path style="fill:#C29659;" d="M153.671,453.592c5.154-3.332,10.308-6.664,15.462-9.995c2.728-1.764,10.459-4.886,9.292-9.055
						c-0.347-1.238-2.221-0.537-1.875,0.698c0.697,2.49-10.372,7.888-11.768,8.79c-4.089,2.643-8.178,5.287-12.267,7.93
						C151.434,452.659,152.59,454.291,153.671,453.592L153.671,453.592z"/>
				</g>
			</g>
			<g>
				<g>
					<g>
						<path style="fill:#C29659;" d="M177.659,440.105c8.6,14.71-12.364,28.154-22.243,14.279c-0.746-1.048-2.381,0.104-1.632,1.156
							c4.795,6.734,13.892,9.128,21.05,4.458c7.189-4.69,8.641-13.896,4.459-21.05C178.642,437.839,177.012,438.999,177.659,440.105
							L177.659,440.105z"/>
					</g>
				</g>
			</g>
			<g>
				<g>
					<path style="fill:#C29659;" d="M173.027,457.35c4.962-3.438,6.999-8.543,5.359-14.4c-0.347-1.238-2.221-0.537-1.875,0.698
						c1.397,4.988-0.465,9.176-4.641,12.07C170.813,456.451,171.966,458.085,173.027,457.35L173.027,457.35z"/>
				</g>
			</g>
		</g>
		<path style="fill:none;stroke:#C29659;stroke-linecap:round;stroke-linejoin:round;stroke-miterlimit:10;" d="M150.838,453.199"/>
	</g>
	<g>
		<g>
			<g>
				<g>
					<path style="fill:#C29659;" d="M69.202,233.914c0.887-1.874,4.623-8.732,7.468-5.713c1.408,1.493,0.388,7.197,0.282,8.906
						c-0.264,4.268-1.917,11.286,0.42,15.225c2.095,3.53,9.027,3.312,12.514,3.627c4.875,0.441,9.784,0.664,14.679,0.736
						c1.286,0.019,1.102-1.974-0.174-1.992c-5.96-0.087-11.965-0.346-17.879-1.113c-3.002-0.39-6.938-0.35-7.836-3.697
						c-0.901-3.357-0.095-7.483,0.138-10.885c0.225-3.283,1.844-10.916-1.527-13.183c-4.196-2.822-8.505,4.3-9.894,7.235
						C66.842,234.225,68.651,235.078,69.202,233.914L69.202,233.914z"/>
				</g>
			</g>
			<g>
				<g>
					<path style="fill:#C29659;" d="M96.516,272.668c0-14.735,0-29.469,0-44.204c0-1.287-1.992-1.105-1.992,0.174
						c0,14.735,0,29.469,0,44.204C94.524,274.129,96.516,273.947,96.516,272.668L96.516,272.668z"/>
				</g>
			</g>
		</g>
		<g>
			<g>
				<g>
					<path style="fill:#C29659;" d="M394.067,257.461c0-10.412,0-20.824,0-31.236c0-1.287-1.992-1.105-1.992,0.174
						c0,10.412,0,20.824,0,31.236C392.074,258.922,394.067,258.741,394.067,257.461L394.067,257.461z"/>
				</g>
			</g>
			<g>
				<g>
					<path style="fill:#C29659;" d="M394.054,249.347c0.598-6.598,2.679-15.254,8.264-19.375c4.901-3.616,10.945-2.091,13.31,3.433
						c1.91,4.462,1.988,9.738,1.92,14.518c-0.067,4.724-0.594,9.407-0.942,14.113c-0.243,3.296-0.35,7.034,2.116,9.591
						c4.313,4.471,13.111,1.355,13.914-4.723c1.147-8.68-11.68-10.675-10.7-1.972c0.144,1.277,2.137,1.108,1.992-0.174
						c-0.686-6.098,7.873-3.627,6.698,2.147c-0.553,2.715-3.363,4.613-6.022,4.818c-7.08,0.545-6.189-7.547-5.777-12.274
						c0.763-8.779,2.369-19.712-1.835-27.862c-3.642-7.061-12.428-7.066-17.63-1.641c-4.639,4.838-6.684,12.51-7.276,19.042
						C391.971,250.259,393.938,250.629,394.054,249.347L394.054,249.347z"/>
				</g>
			</g>
		</g>
		<g>
			<g>
				<g>
					<path style="fill:#C29659;" d="M270.671,73.891c-0.35,12.127-9.991,22.144-22.312,22.138
						c-12.115-0.006-22.159-10.242-22.138-22.312c0.021-12.112,10.234-22.176,22.312-22.138
						C260.926,51.618,270.321,61.801,270.671,73.891c0.037,1.287,2.03,1.109,1.992-0.174c-0.637-22.044-28.869-32.817-43.104-15.08
						c-14.049,17.508,2.407,43.807,24.298,38.771c11.167-2.569,18.481-12.456,18.806-23.691
						C272.7,72.432,270.707,72.617,270.671,73.891z"/>
				</g>
			</g>
			<path style="fill:#C29659;" d="M253.102,84.365c0,2.572-2.085,4.657-4.657,4.657c-2.572,0-4.657-2.085-4.657-4.657
				s2.085-4.657,4.657-4.657C251.017,79.709,253.102,81.793,253.102,84.365z"/>
		</g>
		<g>
			<g>
				<path style="fill:#C29659;" d="M225.562,450.234c17.016-11.693,34.032-23.387,51.049-35.081c0.873-0.6,0.274-1.812-0.665-1.812
					c-18.391,0-36.783,0-55.174,0c-0.842,0-1.248,1.277-0.556,1.762c16.685,11.694,33.37,23.387,50.056,35.081
					c0.765,0.536,1.982-0.119,1.58-1.115c-7.504-18.577-15.008-37.154-22.512-55.731c-0.308-0.762-1.497-0.9-1.842-0.079
					c-7.806,18.577-15.612,37.154-23.418,55.731c-0.498,1.186,1.309,2.043,1.808,0.855c7.806-18.577,15.612-37.154,23.418-55.731
					c-0.614-0.026-1.228-0.052-1.842-0.079c7.504,18.577,15.008,37.154,22.512,55.731c0.527-0.372,1.053-0.743,1.58-1.115
					c-16.685-11.694-33.37-23.387-50.056-35.081c-0.185,0.587-0.37,1.175-0.556,1.762c18.391,0,36.783,0,55.174,0
					c-0.222-0.604-0.444-1.208-0.665-1.812c-17.016,11.693-34.032,23.387-51.049,35.081
					C223.345,449.331,224.499,450.965,225.562,450.234z"/>
			</g>
		</g>
	</g>
	<g>
		<g>
			<g>
				<g>
					<path style="fill:#49392C;" d="M268.404,259.591c-0.117-2.284-0.175-3.32-2.349-3.967c-3.281-0.975-6.84-1.288-10.247-0.978
						c-1.705,0.155-5.753,0.419-6.988,1.732c-1.372,1.46-0.578,5.309,0.07,6.969c4.003,10.258,18.931,7.109,19.502-3.489
						c0.068-1.27-1.898-1.644-1.967-0.362c-0.457,8.476-12.285,11.707-15.659,3.153c-0.655-1.66-1.171-4.241,0.623-5.152
						c1.418-0.72,3.604-0.792,5.186-0.9c2.047-0.14,4.111-0.027,6.133,0.319c2.028,0.347,3.583,0.456,3.705,2.848
						C266.477,261.051,268.47,260.875,268.404,259.591z"/>
				</g>
			</g>
			<g>
				<g>
					<path style="fill:#49392C;" d="M259.295,268.699c0-1.926,0-3.851,0-5.776c0-1.287-1.992-1.105-1.992,0.174
						c0,1.926,0,3.851,0,5.777C257.303,270.161,259.295,269.979,259.295,268.699L259.295,268.699z"/>
				</g>
			</g>
			<g>
				<g>
					<path style="fill:#49392C;" d="M251.852,266.226c1.489-1.221,2.978-2.441,4.468-3.662c0.99-0.811-0.157-2.451-1.156-1.632
						c-1.489,1.221-2.978,2.441-4.468,3.662C249.706,265.405,250.853,267.045,251.852,266.226L251.852,266.226z"/>
				</g>
			</g>
			<g>
				<g>
					<path style="fill:#49392C;" d="M249.331,260.677c1.925-0.012,3.851-0.024,5.776-0.036c1.287-0.008,1.106-2.001-0.174-1.992
						c-1.925,0.012-3.851,0.024-5.776,0.036C247.87,258.693,248.051,260.685,249.331,260.677L249.331,260.677z"/>
				</g>
			</g>
			<g>
				<g>
					<path style="fill:#49392C;" d="M265.966,264.644c-1.489-1.221-2.978-2.441-4.468-3.662c-0.996-0.816-2.283,0.715-1.286,1.532
						c1.489,1.221,2.978,2.441,4.468,3.662C265.677,266.992,266.964,265.461,265.966,264.644L265.966,264.644z"/>
				</g>
			</g>
			<g>
				<g>
					<path style="fill:#49392C;" d="M267.266,258.685c-1.926-0.012-3.851-0.024-5.777-0.036c-1.286-0.008-1.104,1.984,0.174,1.992
						c1.925,0.012,3.851,0.024,5.776,0.036C268.727,260.685,268.544,258.693,267.266,258.685L267.266,258.685z"/>
				</g>
			</g>
		</g>
		<path style="fill:#49392C;" d="M263.487,259.678c0-1.574-0.703-2.981-1.81-3.932c-1.085-0.136-2.212-0.212-3.378-0.212
			c-1.178,0-2.306,0.078-3.384,0.217c-1.103,0.951-1.805,2.356-1.805,3.927c0,2.865,2.323,5.188,5.188,5.188
			C261.164,264.866,263.487,262.543,263.487,259.678z"/>
		<g>
			<g>
				<path style="fill:#49392C;" d="M242.686,341.511c0.692-3.165,0.999-6.438,1.139-9.669c0.134-3.091,0.073-6.198-0.274-9.274
					c-0.254-2.252-0.425-7.063-1.93-8.936c-0.92-1.144-3.126-1.823-4.287-2.699c-4.361-3.289-7.768-7.802-10.17-12.679
					c-3.073-6.237-4.799-13.073-7.766-19.383c-2.669-5.677-5.826-11.118-9.486-16.213c-3.955-5.504-8.713-10.193-13-15.407
					c-2.772-3.371-6.115-7.877-0.108-9.46c5.16-1.36,10.96,2.879,14.764,5.881c6.265,4.943,11.311,11.201,15.282,18.093
					c0.309,0.536,1.228,0.557,1.582,0.065c3.327-4.628,4.175-11.259,4.305-16.743c0.162-6.779-1.182-13.543-1.977-20.255
					c-0.771-6.51-1.459-13.029-2.118-19.55c-0.448-4.437-0.874-8.877-1.336-13.313c-0.309-2.967-0.708-6.101-0.245-9.073
					c0.685-4.394,5.317-8.521,9.19-4.13c3.156,3.579,3.371,10.202,4.32,14.701c0.796,3.774,1.569,7.552,2.343,11.33
					c1.538,7.501,3.064,15.004,4.585,22.508c0.257,1.266,1.96,1.12,1.992-0.174c0.432-17.217,0.853-34.435,1.433-51.647
					c0.152-4.501-0.785-13.271,4.034-15.433c7.28-3.266,8.369,7.781,8.69,12.172c0.711,9.709,1.395,19.421,2.11,29.129
					c0.617,8.375,1.237,16.751,1.861,25.126c0.084,1.124,1.784,1.208,1.98,0.094c2.403-13.682,4.777-27.374,7.379-41.02
					c0.796-4.173,1.425-8.932,5.592-11.132c5.623-2.969,8.912,2.193,9.046,6.988c0.077,2.756-0.578,5.476-1.148,8.15
					c-1.666,7.808-3.145,15.658-4.653,23.498c-1.298,6.75-2.586,13.502-3.861,20.257c-0.221,1.171,1.335,1.547,1.888,0.608
					c5.028-8.536,10.126-17.048,14.909-25.724c0.374-0.678,0.722-1.376,1.106-2.048c1.621-2.838,8.559-11.777,10.698-1.847
					c0.721,3.348-1.505,7.77-2.669,10.928c-2.408,6.529-4.861,13.043-6.919,19.693c-6.877,22.224,0.962,47.7-10.156,68.942
					c-1.536,2.935-3.446,5.259-6.222,7.063c-1.767,1.148-1.776,1.041-2.076,3.157c-1.261,8.905-0.721,18.271,2.037,26.836
					c0.394,1.225,2.269,0.528,1.875-0.698c-1.805-5.606-2.521-11.375-2.501-17.252c0.007-1.979-0.587-8.479,0.811-10.272
					c0.012-0.015,3.382-1.805,4.265-2.732c1.882-1.973,3.275-4.388,4.394-6.859c5.607-12.382,5.998-27.179,6.31-40.546
					c0.116-4.958-0.209-10.033,0.299-14.971c0.845-8.205,4.138-16.333,6.929-24.024c2.036-5.609,5.431-12.051,5.607-18.122
					c0.213-7.344-6.888-9.359-11.703-4.275c-4.408,4.655-7.232,12.075-10.428,17.579c-2.777,4.781-5.57,9.554-8.376,14.318
					c0.629,0.203,1.259,0.406,1.888,0.608c1.342-7.112,2.698-14.222,4.067-21.329c1.778-9.229,4.512-18.694,5.467-28.048
					c0.45-4.409,0.044-9.833-4.492-11.942c-4.323-2.01-9.052,0.279-11.394,4.13c-1.826,3.001-2.198,6.782-2.836,10.175
					c-0.889,4.729-1.744,9.465-2.596,14.201c-1.52,8.446-3.02,16.896-4.505,25.349c0.66,0.031,1.32,0.063,1.98,0.094
					c-0.638-8.562-1.271-17.124-1.902-25.687c-0.464-6.297-0.926-12.594-1.381-18.892c-0.387-5.362-0.315-11.088-1.52-16.336
					c-0.924-4.027-2.962-7.543-7.467-7.697c-4.097-0.14-6.424,2.727-7.432,6.458c-1.23,4.552-0.925,9.763-1.074,14.454
					c-0.2,6.26-0.376,12.521-0.549,18.781c-0.275,9.973-0.538,19.947-0.788,29.92c0.664-0.058,1.328-0.116,1.992-0.174
					c-1.521-7.504-3.047-15.007-4.585-22.508c-0.837-4.085-1.674-8.171-2.538-12.25c-0.962-4.54-1.377-10.504-4.213-14.373
					c-2.128-2.902-6.266-4.032-9.485-2.133c-3.595,2.121-3.836,7.117-3.768,10.818c0.222,12.167,2.268,24.611,3.671,36.68
					c1.304,11.212,5.63,27.02-1.676,37.18c0.527,0.022,1.055,0.043,1.582,0.065c-5.684-9.862-15.051-21.389-26.573-24.595
					c-4.601-1.28-12.615,0.694-10.285,6.885c2.168,5.762,8.214,10.376,12.045,14.97c5.174,6.204,9.613,12.99,13.16,20.251
					c5.717,11.702,7.896,25.324,18.602,33.864c1.155,0.921,2.955,1.619,3.964,2.65c1.795,1.834,1.848,5.296,2.165,8.108
					c0.683,6.06,0.467,12.432-0.84,18.407C240.442,342.41,242.411,342.766,242.686,341.511L242.686,341.511z"/>
			</g>
		</g>
		<path style="fill:#49392C;" d="M188.431,240.478l11.055,11.195c0,0,3.184-1.239,1.386-4.161c-1.798-2.921-6.609-8.482-8.015-9.156
			C191.453,237.682,188.88,238.081,188.431,240.478z"/>
		<g>
			<g>
				<path style="fill:#49392C;" d="M227.15,197.815c4.811-1.155,9.854-2.057,14.811-1.983c1.286,0.019,1.102-1.973-0.174-1.992
					c-5.144-0.077-10.346,0.903-15.335,2.1C225.205,196.24,225.91,198.113,227.15,197.815L227.15,197.815z"/>
			</g>
		</g>
		<g>
			<g>
				<path style="fill:#49392C;" d="M248.622,216.283c6.344,0.828,12.912,0.509,19.26,0.012c1.283-0.1,1.11-2.093-0.174-1.992
					c-6.173,0.483-12.557,0.818-18.724,0.012C247.71,214.149,247.344,216.116,248.622,216.283L248.622,216.283z"/>
			</g>
		</g>
		<g>
			<g>
				<path style="fill:#49392C;" d="M248.622,221.541c6.499,1.352,13.448,1.454,19.912-0.046c1.249-0.29,0.543-2.163-0.698-1.875
					c-6.113,1.419-12.717,1.229-18.852-0.046C247.721,219.311,247.363,221.279,248.622,221.541L248.622,221.541z"/>
			</g>
		</g>
		<g>
			<g>
				<path style="fill:#49392C;" d="M274.95,192.451c5.136,0.1,10.491,1.547,14.817,4.305c1.085,0.691,1.927-1.125,0.855-1.808
					c-4.641-2.958-10.361-4.382-15.847-4.489C273.491,190.433,273.675,192.426,274.95,192.451L274.95,192.451z"/>
			</g>
		</g>
		<g>
			<g>
				<path style="fill:#49392C;" d="M295.731,211.672c4.232,1.383,8.3,3.55,11.903,6.139c1.04,0.748,2.333-0.779,1.286-1.532
					c-3.75-2.696-7.93-4.977-12.333-6.416C295.376,209.468,294.51,211.273,295.731,211.672L295.731,211.672z"/>
			</g>
		</g>
		<g>
			<g>
				<path style="fill:#49392C;" d="M288.649,224.424c5.122,0.976,10.054,3.582,14.234,6.6c1.039,0.75,2.331-0.777,1.286-1.532
					c-4.474-3.23-9.681-5.992-15.158-7.036C287.744,222.215,287.385,224.183,288.649,224.424L288.649,224.424z"/>
			</g>
		</g>
		<g>
			<g>
				<path style="fill:#49392C;" d="M286.579,228.972c5.29,1.102,10.402,3.704,14.749,6.839c1.039,0.75,2.332-0.777,1.286-1.532
					c-4.643-3.349-10.026-6.098-15.673-7.275C285.678,226.742,285.32,228.71,286.579,228.972L286.579,228.972z"/>
			</g>
		</g>
		<g>
			<g>
				<path style="fill:#49392C;" d="M211.742,267.045c4.781-3.043,9.211-6.772,13.116-10.868c0.89-0.933-0.647-2.214-1.532-1.286
					c-3.787,3.973-8.103,7.57-12.74,10.522C209.5,266.104,210.657,267.736,211.742,267.045L211.742,267.045z"/>
			</g>
		</g>
		<g>
			<g>
				<path style="fill:#49392C;" d="M226.899,260.543c-3.598,4.186-8.003,7.848-12.802,10.564c-1.119,0.633,0.043,2.262,1.156,1.632
					c4.932-2.791,9.478-6.606,13.178-10.91C229.272,260.851,227.739,259.566,226.899,260.543L226.899,260.543z"/>
			</g>
		</g>
		<g>
			<g>
				<path style="fill:#49392C;" d="M233.4,206.721c2.818,11.254,5.635,22.507,8.453,33.761c0.312,1.245,2.185,0.541,1.875-0.698
					c-2.818-11.254-5.635-22.507-8.453-33.761C234.963,204.778,233.09,205.482,233.4,206.721L233.4,206.721z"/>
			</g>
		</g>
		<g>
			<path style="fill:#49392C;" d="M241.713,228.785c0,0.974-0.79,1.764-1.764,1.764s-1.764-0.79-1.764-1.764
				c0-0.974,0.79-1.764,1.764-1.764S241.713,227.811,241.713,228.785z"/>
			<path style="fill:#49392C;" d="M238.185,215.054c0,0.974-0.79,1.764-1.764,1.764c-0.974,0-1.764-0.79-1.764-1.764
				s0.79-1.764,1.764-1.764C237.395,213.29,238.185,214.08,238.185,215.054z"/>
		</g>
		<g>
			<g>
				<path style="fill:#49392C;" d="M258.212,250.676c-8.361,0.316-15.812,5.564-19.978,12.718c-0.179,0.307-0.1,0.727,0.088,1.006
					c9.871,14.669,30.568,13.512,40.942,0.065c0.279-0.361,0.305-0.839,0.05-1.221C274.587,256.166,266.793,251,258.212,250.676
					c-1.283-0.048-1.097,1.945,0.174,1.992c5.668,0.214,10.627,2.746,14.746,6.544c1.303,1.201,3.932,3.317,4.514,5.135
					c-0.554-1.732,0.309-0.73-1.039,0.143c-1.364,0.883-2.464,2.445-3.78,3.463c-3.968,3.071-8.811,5.267-13.891,5.374
					c-5.395,0.113-10.44-1.879-14.551-5.324c-1.189-0.996-2.177-2.129-3.258-3.232c-0.431-0.44-1.074-1.896-1.097-1.027
					c-0.025,0.946,1.052-1.055,1.347-1.448c0.85-1.132,1.785-2.211,2.791-3.207c3.907-3.868,8.685-6.211,14.219-6.421
					C259.673,252.62,259.495,250.628,258.212,250.676z"/>
			</g>
		</g>
		<g>
			<g>
				<path style="fill:#49392C;" d="M279.14,263.056c-10.575-10.773-30.597-11.755-40.769,0.123
					c-0.839,0.979,0.694,2.264,1.532,1.286c9.498-11.091,28.15-9.862,37.951,0.123C278.757,265.507,280.035,263.968,279.14,263.056
					L279.14,263.056z"/>
			</g>
		</g>
		<g>
			<g>
				<g>
					<path style="fill:#49392C;" d="M259.295,255.267c0-3.971,0-7.942,0-11.913c0-1.287-1.992-1.105-1.992,0.174
						c0,3.971,0,7.942,0,11.913C257.303,256.728,259.295,256.546,259.295,255.267L259.295,255.267z"/>
				</g>
			</g>
			<g>
				<g>
					<path style="fill:#49392C;" d="M254.595,255.423c-0.861-3.344-1.722-6.688-2.583-10.032c-0.32-1.243-2.194-0.54-1.875,0.698
						c0.861,3.344,1.722,6.688,2.583,10.032C253.041,257.365,254.914,256.661,254.595,255.423L254.595,255.423z"/>
				</g>
			</g>
			<g>
				<g>
					<path style="fill:#49392C;" d="M250.31,256.52c-1.202-2.495-2.405-4.99-3.607-7.485c-0.553-1.148-2.435-0.465-1.875,0.698
						c1.203,2.495,2.405,4.99,3.608,7.485C248.988,258.366,250.87,257.683,250.31,256.52L250.31,256.52z"/>
				</g>
			</g>
			<g>
				<g>
					<path style="fill:#49392C;" d="M246.413,258.195c-1.298-1.502-2.596-3.005-3.895-4.507c-0.834-0.965-2.476,0.18-1.632,1.156
						c1.298,1.502,2.596,3.005,3.895,4.507C245.614,260.316,247.256,259.172,246.413,258.195L246.413,258.195z"/>
				</g>
			</g>
			<g>
				<g>
					<path style="fill:#49392C;" d="M263.923,255.953c0.861-3.344,1.722-6.688,2.583-10.032c0.322-1.249-1.648-1.602-1.968-0.362
						c-0.861,3.344-1.722,6.688-2.583,10.032C261.634,256.841,263.604,257.193,263.923,255.953L263.923,255.953z"/>
				</g>
			</g>
			<g>
				<g>
					<path style="fill:#49392C;" d="M268.129,257.297c1.202-2.495,2.405-4.99,3.607-7.485c0.56-1.162-1.249-2.015-1.808-0.855
						c-1.202,2.495-2.405,4.99-3.607,7.485C265.761,257.604,267.57,258.456,268.129,257.297L268.129,257.297z"/>
				</g>
			</g>
			<g>
				<g>
					<path style="fill:#49392C;" d="M271.767,259.416c1.298-1.502,2.596-3.005,3.895-4.507c0.843-0.976-0.69-2.26-1.532-1.285
						c-1.298,1.502-2.596,3.005-3.895,4.507C269.392,259.106,270.925,260.391,271.767,259.416L271.767,259.416z"/>
				</g>
			</g>
		</g>
		<g>
			<g>
				<g>
					<path style="fill:#49392C;" d="M257.303,278.023c0,3.097,0,6.194,0,9.291c0,1.287,1.992,1.105,1.992-0.174
						c0-3.097,0-6.194,0-9.291C259.295,276.562,257.303,276.744,257.303,278.023L257.303,278.023z"/>
				</g>
			</g>
			<g>
				<g>
					<path style="fill:#49392C;" d="M249.63,276.639c-0.989,2.104-1.977,4.208-2.966,6.312c-0.548,1.167,1.261,2.021,1.808,0.855
						c0.989-2.104,1.977-4.208,2.966-6.312C251.987,276.327,250.178,275.474,249.63,276.639L249.63,276.639z"/>
				</g>
			</g>
			<g>
				<g>
					<path style="fill:#49392C;" d="M242.419,273.119c-1.148,1.392-2.296,2.783-3.444,4.174c-0.82,0.994,0.711,2.28,1.532,1.286
						c1.148-1.392,2.296-2.783,3.444-4.174C244.77,273.411,243.239,272.124,242.419,273.119L242.419,273.119z"/>
				</g>
			</g>
			<g>
				<g>
					<path style="fill:#49392C;" d="M265.126,277.416c0.988,2.104,1.977,4.208,2.966,6.312c0.543,1.155,2.424,0.471,1.875-0.698
						c-0.989-2.104-1.977-4.208-2.966-6.312C266.458,275.563,264.577,276.247,265.126,277.416L265.126,277.416z"/>
				</g>
			</g>
			<g>
				<g>
					<path style="fill:#49392C;" d="M272.597,274.34c1.148,1.391,2.296,2.783,3.444,4.174c0.814,0.987,2.454-0.16,1.632-1.156
						c-1.148-1.391-2.296-2.783-3.444-4.174C273.415,272.197,271.775,273.344,272.597,274.34L272.597,274.34z"/>
				</g>
			</g>
		</g>
		<g>
			<g>
				<path style="fill:#49392C;" d="M241.164,314.771c-2.367,0.05-12.17,0.835-7.636,5.082c4.1,3.84,12.928,4.328,18.091,5.11
					c9.025,1.367,18.186,2.137,27.313,2.295c3.557,0.062,12.958,1.293,15.772-1.843c4.178-4.654-8.961-7.597-11.418-8.061
					c-1.267-0.239-1.626,1.729-0.362,1.968c2.768,0.522,5.857,1.158,8.32,2.554c4.146,2.349,0.532,2.776-2.03,3.07
					c-7.405,0.851-15.085,0.297-22.484-0.288c-7.982-0.631-16.049-1.52-23.852-3.368c-1.635-0.387-6.48-0.992-7.489-2.579
					c-1.246-1.959,4.241-1.912,5.948-1.949C242.626,316.736,242.447,314.743,241.164,314.771L241.164,314.771z"/>
			</g>
		</g>
		<g>
			<g>
				<path style="fill:#49392C;" d="M242.388,323.703c-1.854,0.667-11.322,4.14-7.074,7.167c3.325,2.369,11.509,0.498,15.122,0.106
					c8.129-0.881,16.227-2.291,24.18-4.188c5.178-1.235,13.01-2.457,17.038-6.356c4.877-4.721-4.692-6.88-7.963-7.236
					c-1.274-0.139-1.642,1.828-0.362,1.968c1.837,0.2,8.12,0.904,7.486,3.271c-0.423,1.581-4.467,2.723-5.764,3.216
					c-6.793,2.585-14.063,4.06-21.195,5.345c-6.903,1.243-13.924,2.298-20.942,2.567c-1.265,0.048-5.153,0.663-6.181-0.287
					c-0.873-0.808,2.003-1.849,3.1-2.369c1.056-0.5,2.15-0.933,3.25-1.329C244.296,325.142,243.602,323.266,242.388,323.703
					L242.388,323.703z"/>
			</g>
		</g>
		<circle style="fill:#49392C;" cx="256.399" cy="329.213" r="2.386"/>
		<path style="fill:#49392C;" d="M239.74,321.026c0,1.307-1.059,2.367-2.367,2.367c-1.307,0-2.367-1.06-2.367-2.367
			c0-1.307,1.059-2.367,2.367-2.367C238.681,318.659,239.74,319.719,239.74,321.026z"/>
		<g>
			<g>
				<path style="fill:#49392C;" d="M248.87,316.974c9.536,1.306,19.031,0.809,28.392-1.445c1.247-0.3,0.542-2.173-0.698-1.875
					c-9.002,2.167-18.162,2.608-27.333,1.352C247.959,314.832,247.594,316.799,248.87,316.974L248.87,316.974z"/>
			</g>
		</g>
		<g>
			<path style="fill:#C29659;" d="M233.331,276.205c-3.041,0.784-3.297,1.08-4.115,4.237c-0.783-3.165-1.036-3.464-4.068-4.281
				c3.041-0.784,3.297-1.08,4.115-4.237C230.046,275.089,230.299,275.388,233.331,276.205z"/>
		</g>
		<g>
			<path style="fill:#C29659;" d="M248.753,294.286c-3.041,0.784-3.297,1.08-4.115,4.237c-0.783-3.165-1.036-3.465-4.068-4.282
				c3.041-0.784,3.297-1.08,4.115-4.237C245.468,293.17,245.721,293.469,248.753,294.286z"/>
		</g>
		<g>
			<g>
				<path style="fill:#49392C;" d="M280.127,206.191c-2.818,11.254-5.635,22.507-8.453,33.761c-0.313,1.251,1.656,1.605,1.967,0.361
					c2.818-11.254,5.635-22.507,8.453-33.761C282.407,205.301,280.438,204.948,280.127,206.191L280.127,206.191z"/>
			</g>
		</g>
		<g>
			<path style="fill:#49392C;" d="M273.734,228.785c0,0.974,0.79,1.764,1.764,1.764c0.974,0,1.764-0.79,1.764-1.764
				c0-0.974-0.79-1.764-1.764-1.764C274.524,227.021,273.734,227.811,273.734,228.785z"/>
			<circle style="fill:#49392C;" cx="279.027" cy="215.054" r="1.764"/>
		</g>
		<g>
			<path style="fill:#C29659;" d="M282.117,276.205c3.041,0.784,3.297,1.08,4.115,4.237c0.783-3.165,1.036-3.464,4.068-4.281
				c-3.041-0.784-3.297-1.08-4.115-4.237C285.402,275.089,285.149,275.388,282.117,276.205z"/>
		</g>
		<g>
			<path style="fill:#C29659;" d="M266.695,294.286c3.041,0.784,3.297,1.08,4.115,4.237c0.783-3.165,1.036-3.465,4.068-4.282
				c-3.041-0.784-3.297-1.08-4.115-4.237C269.98,293.17,269.727,293.469,266.695,294.286z"/>
		</g>
	</g>
	<g>
		<g>
			<g>
				<g>
					<g>
						<path style="fill:#C29659;" d="M421.605,110.762c2.367,12.254,4.734,24.509,7.102,36.764
							c1.181,6.111,1.769,12.786,3.619,18.734c0.149,0.48,0.215,1.033,0.296,1.531c-0.159-0.979,1.28-0.722-0.312-0.386
							c-3.017,0.635-6.554,3.301-9.297,4.683c-3.503,1.764-7.007,3.529-10.51,5.293c-0.912,0.459-2.105,0.845-2.917,1.469
							c-0.603,0.463,1.173,0.913,0.495,0.216c-3.746-3.851-7.279-7.935-10.91-11.893c-9.277-10.113-18.748-20.081-27.847-30.356
							c-0.487-0.55-0.684,0.859,0.145,0.116c1.236-1.109,2.138-2.284,3.62-3.168c5.698-3.4,11.883-1.696,17.955-3.182
							c5.154-1.262,9.128-4.874,12.957-8.338c5.104-4.618,10.227-8.655,16.951-10.631c1.234-0.363,0.534-2.237-0.698-1.875
							c-6.481,1.904-11.582,5.614-16.545,10.088c-4.467,4.027-9.019,8.546-15.322,9.194c-7.079,0.727-17.107-0.068-21.085,7.619
							c-0.147,0.285-0.139,0.758,0.088,1.006c13.12,14.302,26.24,28.605,39.361,42.907c0.275,0.3,0.743,0.572,1.165,0.359
							c8.026-4.043,16.053-8.085,24.079-12.128c0.363-0.183,0.736-0.568,0.647-1.025c-3.681-19.056-7.362-38.113-11.043-57.169
							C423.356,109.336,421.361,109.497,421.605,110.762z"/>
					</g>
				</g>
				<g>
					<g>
						<path style="fill:#C29659;" d="M355.201,76.769c-2.967-5.891-5.935-11.783-8.902-17.675c-0.196,0.429-0.392,0.858-0.589,1.286
							c4.367-2.199,8.734-4.399,13.101-6.598c2.034-1.024,4.209-2.521,6.384-3.215c0.974-0.311-0.685-0.827,0.603,0.277
							c1.01,0.865,2.139,1.628,3.198,2.435c0.55,0.419,1.55,0.208,1.627-0.585c0.121-1.253,0.216-5,0.295-5.137
							c0,0,3.387-1.578,4.452-2.115c-0.429-0.196-0.858-0.392-1.286-0.589c2.967,5.892,5.935,11.783,8.902,17.675
							c0.572,1.136,2.455,0.454,1.875-0.698c-2.967-5.892-5.935-11.783-8.902-17.675c-0.222-0.44-0.761-0.853-1.286-0.588
							c-1.424,0.717-4.281,1.454-5.261,2.734c-0.977,1.276-0.605,4.467-0.757,6.031c0.542-0.195,1.084-0.39,1.627-0.585
							c-1.396-1.063-2.792-2.126-4.188-3.189c-0.263-0.2-0.672-0.333-0.992-0.171c-6.697,3.373-13.393,6.746-20.09,10.119
							c-0.44,0.222-0.853,0.762-0.589,1.286c2.967,5.892,5.935,11.783,8.902,17.675C353.898,78.603,355.781,77.921,355.201,76.769
							L355.201,76.769z"/>
					</g>
				</g>
				<g>
					<g>
						<path style="fill:#C29659;" d="M367.297,54.669c0.651,1.292,0.131,2.867-1.161,3.518s-2.867,0.131-3.518-1.161
							c-0.651-1.292-0.131-2.867,1.161-3.518C365.071,52.857,366.646,53.377,367.297,54.669z"/>
					</g>
					<g>
						<path style="fill:#C29659;" d="M355.171,64.284c0.492,0.977,0.099,2.167-0.878,2.659c-0.977,0.492-2.167,0.099-2.659-0.878
							c-0.492-0.977-0.099-2.167,0.878-2.659C353.489,62.914,354.679,63.307,355.171,64.284z"/>
					</g>
					<g>
						<path style="fill:#C29659;" d="M367.374,63.776c0.919,1.824,0.185,4.048-1.639,4.967c-1.824,0.919-4.048,0.185-4.967-1.64
							c-0.919-1.824-0.185-4.048,1.64-4.967C364.231,61.217,366.455,61.951,367.374,63.776z"/>
					</g>
					<g>
						<path style="fill:#C29659;" d="M371.555,59.979c0.316,0.627,0.064,1.391-0.564,1.707c-0.627,0.316-1.392,0.063-1.707-0.564
							c-0.316-0.627-0.064-1.392,0.564-1.707C370.475,59.099,371.239,59.352,371.555,59.979z"/>
					</g>
					<g>
						<path style="fill:#C29659;" d="M376.079,52.834c0.536,1.064,0.108,2.361-0.956,2.897c-1.064,0.536-2.361,0.108-2.897-0.956
							c-0.536-1.064-0.108-2.361,0.956-2.897C374.246,51.342,375.543,51.77,376.079,52.834z"/>
					</g>
					<g>
						<path style="fill:#C29659;" d="M378.709,60.163c0.546,1.083,0.11,2.404-0.974,2.949c-1.083,0.546-2.403,0.11-2.949-0.973
							c-0.546-1.083-0.11-2.404,0.974-2.949C376.843,58.644,378.164,59.08,378.709,60.163z"/>
					</g>
					<g>
						<path style="fill:#C29659;" d="M358.732,70.765c0.426,0.845,0.086,1.876-0.76,2.301c-0.845,0.426-1.875,0.086-2.301-0.76
							c-0.426-0.845-0.086-1.876,0.76-2.301C357.276,69.58,358.306,69.92,358.732,70.765z"/>
					</g>
					<g>
						<path style="fill:#C29659;" d="M359.462,57.334c0.571,1.133,0.115,2.514-1.018,3.085c-1.133,0.571-2.514,0.115-3.085-1.018
							c-0.571-1.133-0.115-2.514,1.018-3.085C357.51,55.745,358.891,56.201,359.462,57.334z"/>
					</g>
				</g>
				<g>
					<g>
						<path style="fill:#C29659;" d="M385.441,140.283c0.738,1.466,0.148,3.253-1.318,3.992c-1.466,0.739-3.253,0.148-3.992-1.318
							c-0.738-1.466-0.149-3.253,1.318-3.992C382.915,138.227,384.703,138.817,385.441,140.283z"/>
					</g>
					<g>
						<path style="fill:#C29659;" d="M408.66,131.917c1.589,3.154,0.319,7-2.835,8.589c-3.155,1.589-7,0.32-8.589-2.835
							c-1.589-3.154-0.32-7,2.835-8.589C403.226,127.493,407.071,128.762,408.66,131.917z"/>
					</g>
					<g>
						<path style="fill:#C29659;" d="M414.591,156.109c1.007,1.999,0.203,4.436-1.797,5.443c-1.999,1.007-4.436,0.202-5.443-1.797
							c-1.007-1.999-0.202-4.436,1.797-5.443C411.147,153.306,413.585,154.11,414.591,156.109z"/>
					</g>
					<g>
						<path style="fill:#C29659;" d="M396.776,159.384c0.38,0.755,0.077,1.676-0.679,2.056s-1.676,0.076-2.056-0.679
							c-0.38-0.755-0.077-1.676,0.679-2.056C395.475,158.325,396.396,158.629,396.776,159.384z"/>
					</g>
					<g>
						<path style="fill:#C29659;" d="M401.203,145.546c1.052,2.088,0.212,4.634-1.877,5.685c-2.088,1.052-4.634,0.212-5.685-1.877
							c-1.052-2.088-0.211-4.634,1.877-5.685C397.606,142.618,400.151,143.458,401.203,145.546z"/>
					</g>
					<g>
						<path style="fill:#C29659;" d="M421.541,142.474c0.985,1.955,0.198,4.338-1.757,5.322c-1.955,0.985-4.338,0.198-5.322-1.757
							c-0.985-1.955-0.198-4.338,1.757-5.322C418.173,139.732,420.556,140.519,421.541,142.474z"/>
					</g>
					<g>
						<path style="fill:#C29659;" d="M421.132,122.307c0.656,1.303,0.132,2.893-1.172,3.549c-1.304,0.656-2.893,0.132-3.549-1.172
							c-0.656-1.304-0.132-2.893,1.172-3.549C418.887,120.479,420.475,121.003,421.132,122.307z"/>
					</g>
					<g>
						<path style="fill:#C29659;" d="M427.625,156.655c0.571,1.133,0.115,2.514-1.018,3.085c-1.133,0.571-2.514,0.115-3.085-1.018
							c-0.571-1.133-0.115-2.514,1.018-3.085C425.673,155.067,427.054,155.523,427.625,156.655z"/>
					</g>
					<g>
						<path style="fill:#C29659;" d="M422.82,166.841c0.425,0.844,0.085,1.873-0.759,2.298c-0.844,0.425-1.873,0.086-2.298-0.759
							c-0.425-0.844-0.086-1.873,0.759-2.298C421.366,165.657,422.395,165.997,422.82,166.841z"/>
					</g>
					<g>
						<path style="fill:#C29659;" d="M412.558,170.093c0.828,1.644,0.167,3.648-1.477,4.476c-1.644,0.828-3.648,0.166-4.476-1.477
							c-0.828-1.644-0.167-3.648,1.477-4.476C409.726,167.788,411.73,168.449,412.558,170.093z"/>
					</g>
				</g>
			</g>
			<g>
				<g>
					<g>
						<path style="fill:#49392C;" d="M390.944,65.397c-11.334,5.708-22.668,11.417-34.002,17.125
							c-1.18,0.594-2.747,1.798-4.061,2.045c-4.904,0.924-3.609-3.15-1.815-4.726c0.651-0.572,1.819-0.916,2.59-1.305
							c6.738-3.394,13.476-6.787,20.214-10.181c3.513-1.769,7.025-3.538,10.538-5.307c0.998-0.502,2.183-1.36,3.274-1.649
							c2.187-0.58,7.68,0.755,3.035,4.118c-1.042,0.754,0.11,2.39,1.156,1.632c3.106-2.248,3.173-7.325-1.153-8.323
							c-2.277-0.526-4.505,1.086-6.448,2.064c-8.952,4.509-17.903,9.017-26.855,13.526c-3.354,1.689-14.626,5.673-8.9,11.215
							c2.233,2.161,4.802,0.942,7.097-0.214c3.9-1.964,7.8-3.928,11.7-5.893c8.11-4.085,16.22-8.17,24.33-12.254
							C392.778,66.7,392.096,64.817,390.944,65.397z"/>
					</g>
				</g>
				<g>
					<g>
						<g>
							<path style="fill:#49392C;" d="M353.983,84.712c-0.024,8.518-0.049,17.035-0.073,25.553
								c-0.014,4.968-0.028,9.936-0.043,14.905c-0.005,1.629-0.304,3.2,0.487,4.573c1.045,1.816,3.394,3.5,4.838,4.99
								c3.192,3.292,6.384,6.583,9.576,9.875c8.167,8.423,16.335,16.845,24.502,25.268c5.167,5.328,10.333,10.656,15.499,15.984
								c0.222,0.229,0.706,0.315,0.992,0.171c9.479-4.774,18.958-9.549,28.437-14.323c0.373-0.188,0.723-0.563,0.647-1.025
								c-2.887-17.544-5.775-35.088-8.662-52.633c-1.276-7.751-1.843-16.092-3.897-23.682c-0.372-1.375-0.504-1.521-1.605-2.496
								c-3.199-2.831-7.022-5.172-10.46-7.703c-8.016-5.904-16.032-11.808-24.048-17.711c-1.033-0.761-2.324,0.767-1.286,1.532
								c7.891,5.812,15.782,11.623,23.673,17.435c3.693,2.72,7.311,5.621,11.114,8.186c1.151,0.777,0.395-0.044,0.507,0.247
								c0.35,0.913,0.352,2.136,0.51,3.099c3.667,22.28,7.334,44.56,11,66.84c0.379,2.305,0.956,4.666,1.151,6.996
								c-0.048-0.573,1.238-1.029,0.099-0.677c-0.618,0.191-1.23,0.619-1.806,0.91c-2.491,1.255-4.983,2.51-7.474,3.764
								c-5.324,2.682-10.649,5.363-15.973,8.045c-0.688,0.347-1.381,0.685-2.065,1.04c-0.894,0.464-0.288,0.038,0.386,0.405
								c-0.599-0.326-1.202-1.239-1.663-1.715c-15.514-15.998-31.027-31.996-46.541-47.994c-1.79-1.846-5.093-4.135-6.263-6.458
								c0.67,1.33,0.312-1.272,0.315-2.029c0.007-2.548,0.015-5.097,0.022-7.645c0.032-11.299,0.065-22.599,0.097-33.898
								C355.979,83.251,353.986,83.433,353.983,84.712L353.983,84.712z"/>
						</g>
					</g>
				</g>
				<g>
					<g>
						<path style="fill:#49392C;" d="M355.202,129.765c23.423-11.797,46.846-23.595,70.27-35.392
							c1.136-0.572,0.454-2.455-0.698-1.875c-23.423,11.797-46.846,23.595-70.27,35.392
							C353.368,128.462,354.05,130.345,355.202,129.765L355.202,129.765z"/>
					</g>
				</g>
				<g>
					<g>
						<path style="fill:#49392C;" d="M368.229,77.536c0.525,8.107,1.051,16.215,1.576,24.323c0.315,4.863,0.63,9.726,0.945,14.59
							c0.098,1.512-0.043,3.175,0.59,4.539c0.915,1.97,2.916,3.874,4.216,5.601c2.699,3.585,5.397,7.17,8.096,10.755
							c6.831,9.074,13.662,18.148,20.492,27.222c4.248,5.643,8.496,11.285,12.743,16.928c0.772,1.026,2.409-0.124,1.632-1.156
							c-10.063-13.368-20.127-26.736-30.191-40.104c-4.828-6.413-9.411-13.145-14.543-19.319c-1.235-1.486-0.853-0.589-0.912-2.59
							c-0.127-4.262-0.553-8.538-0.829-12.793c-0.609-9.39-1.217-18.779-1.825-28.169C370.138,76.077,368.146,76.252,368.229,77.536
							L368.229,77.536z"/>
					</g>
				</g>
				<g>
					<g>
						<path style="fill:#49392C;" d="M374.641,75.163c6.077,5.143,12.154,10.286,18.231,15.429
							c3.766,3.188,7.533,6.376,11.299,9.563c0.881,0.746,2.078,1.483,2.81,2.378c0.604,0.739-0.236-0.582,0.232,0.459
							c2.85,6.34,4.133,13.958,6.102,20.61c3.139,10.601,6.277,21.202,9.416,31.803c1.963,6.629,3.926,13.259,5.888,19.888
							c0.365,1.233,2.24,0.534,1.875-0.698c-4.839-16.345-9.678-32.69-14.518-49.035c-2.201-7.433-3.787-15.519-6.721-22.702
							c-1.787-4.374-7.898-7.706-11.422-10.688c-7.302-6.18-14.604-12.36-21.906-18.54
							C374.943,72.799,373.658,74.331,374.641,75.163L374.641,75.163z"/>
					</g>
				</g>
			</g>
		</g>
		<g>
			<g>
				<path style="fill:#C29659;" d="M351.053,92.975c-4.178,3.656-4.347,4.327-3.128,9.961c-3.753-4.375-4.391-4.646-9.827-3.525
					c4.178-3.656,4.346-4.327,3.128-9.961C344.978,93.825,345.616,94.096,351.053,92.975z"/>
			</g>
			<g>
				<path style="fill:#C29659;" d="M397.553,46.929c-4.178,3.655-4.347,4.327-3.128,9.961c-3.753-4.375-4.391-4.646-9.828-3.525
					c4.178-3.656,4.347-4.327,3.128-9.961C391.479,47.779,392.116,48.05,397.553,46.929z"/>
			</g>
			<g>
				<path style="fill:#C29659;" d="M338.102,89.669c-2.533,2.217-2.636,2.624-1.897,6.04c-2.276-2.653-2.663-2.817-5.959-2.137
					c2.533-2.217,2.636-2.624,1.896-6.04C334.418,90.184,334.805,90.349,338.102,89.669z"/>
			</g>
			<g>
				<path style="fill:#C29659;" d="M407.485,59.385c-2.533,2.217-2.636,2.624-1.897,6.04c-2.276-2.653-2.663-2.817-5.959-2.137
					c2.533-2.217,2.636-2.624,1.897-6.04C403.802,59.9,404.188,60.065,407.485,59.385z"/>
			</g>
		</g>
	</g>
	<g>
		<g>
			<g>
				<g>
					<path style="fill:#C29659;" d="M405.39,438.297c-16.792,7.296-35.182,6.513-51.259-2.305
						c-13.689-7.509-25.01-20.035-29.967-34.937c-0.283,0.448-0.567,0.897-0.85,1.345c-1.136,0.149-0.505-0.416-0.157,0.286
						c0.249,0.503,1.148,1.057,1.561,1.419c1.746,1.534,3.579,2.969,5.483,4.303c5.204,3.647,10.921,6.565,17.019,8.386
						c7.758,2.317,15.954,2.682,23.866,0.916c2.44-0.545,4.84-1.276,7.168-2.186c1.767-0.69,4.023-2.234,5.818-1.965
						c1.578,0.236,3.62,2.102,5.423,2.492c1.33,0.288,2.699,0.415,4.06,0.386c0.438-0.009,0.818-0.404,0.897-0.815
						c0.716-3.72,1.037-7.976-0.998-11.267c-0.535-0.865-1.35-1.577-1.802-2.501c-1.048-2.142-1.004-2.138,0.389-3.591
						c1.57-1.638,4.403-2.68,6.305-3.916c4.305-2.797,5.729-4.45,7.061-9.271c1.091-3.945,4.18-6.051,5.435-9.846
						c3.475-10.509-1.757-23.874-7.038-32.836c-6.479-10.995-16.787-18.217-28.602-22.574c-0.113,0.633-0.227,1.267-0.34,1.9
						c15.225-3.059,32.645,1.689,44.766,11.035c22.002,16.965,30.558,48.371,18.828,73.718
						C431.789,420.877,419.659,431.697,405.39,438.297c-1.159,0.536-0.474,2.417,0.698,1.875
						c25.111-11.616,42.556-36.579,39.412-64.89c-2.97-26.748-23.11-50.243-49.802-55.204c-6.754-1.255-14.218-1.714-21.012-0.349
						c-0.858,0.172-1.377,1.518-0.34,1.9c12.886,4.752,23.624,12.951,29.737,25.475c4.433,9.083,9.589,23.409,1.878,31.945
						c-1.273,1.41-1.856,2.566-2.303,4.418c-0.898,3.727-1.329,5.66-4.593,7.99c-2.678,1.912-8.035,3.714-9.908,6.494
						c-1.496,2.22,0.631,4.808,1.954,6.64c1.225,1.695,1.585,2.336,1.791,4.642c0.05,0.561,0.385,5.085,0.256,5.219
						c-1.536,1.603-8.801-3.509-8.498-3.181c-0.273-0.297-0.745-0.576-1.165-0.359c-14.415,7.435-30.229,7.699-44.711,0.349
						c-4.207-2.135-8.155-4.778-11.766-7.814c-0.759-0.638-2.709-3.19-3.877-3.037c-0.658,0.086-1.062,0.71-0.85,1.345
						c5.121,15.396,16.855,28.296,30.987,36.047c16.501,9.051,35.579,9.859,52.812,2.372
						C407.262,439.662,406.575,437.782,405.39,438.297z"/>
				</g>
			</g>
			<g>
				<g>
					<path style="fill:#C29659;" d="M384.658,411.269c-1.01-1.748,2.634-1.172,3.36-1.009c0.683,0.154,1.176-0.454,1.177-1.071
						c0.003-1.826,1.157-4.829,3.391-2.763c0.947,0.876,2.229-0.659,1.286-1.532c-1.44-1.332-3.967-1.542-5.375-0.004
						c-1.057,1.155-1.292,2.967-1.294,4.473c0.392-0.357,0.785-0.714,1.177-1.071c-1.643-0.371-3.795-0.603-5.148,0.653
						c-1.076,0.999-0.879,2.315-0.206,3.48C383.669,413.539,385.299,412.378,384.658,411.269L384.658,411.269z"/>
				</g>
			</g>
			<g>
				<g>
					<path style="fill:#C29659;" d="M423.879,394.374c-2.758-5.366-8.258-8.697-14.292-7.313c-1.249,0.287-0.543,2.16,0.698,1.875
						c4.956-1.137,9.641,2.089,11.72,6.135C422.585,396.201,424.468,395.52,423.879,394.374L423.879,394.374z"/>
				</g>
			</g>
			<g>
				<g>
					<g>
						<path style="fill:#C29659;" d="M406.452,393.116c2.358,5.067,7.737,7.074,12.95,5.419c1.226-0.389,0.529-2.264-0.698-1.875
							c-4.11,1.305-8.501-0.208-10.377-4.242C407.788,391.26,405.907,391.945,406.452,393.116L406.452,393.116z"/>
					</g>
				</g>
				<g>
					<g>
						<path style="fill:#C29659;" d="M411.051,401.953c0.64-1.355,1.28-2.71,1.92-4.066c0.551-1.166-1.258-2.02-1.808-0.855
							c-0.64,1.355-1.28,2.71-1.92,4.066C408.692,402.265,410.501,403.118,411.051,401.953L411.051,401.953z"/>
					</g>
				</g>
				<g>
					<g>
						<path style="fill:#C29659;" d="M407.93,399.621c0.91-0.984,1.821-1.969,2.731-2.953c0.876-0.947-0.66-2.229-1.532-1.286
							c-0.91,0.984-1.821,1.969-2.731,2.953C405.522,399.282,407.058,400.564,407.93,399.621L407.93,399.621z"/>
					</g>
				</g>
				<g>
					<g>
						<path style="fill:#C29659;" d="M406.292,396.905c0.851-0.624,1.703-1.248,2.554-1.872c1.037-0.76-0.114-2.396-1.156-1.632
							c-0.851,0.624-1.702,1.248-2.554,1.872C404.099,396.033,405.25,397.669,406.292,396.905L406.292,396.905z"/>
					</g>
				</g>
				<g>
					<g>
						<path style="fill:#C29659;" d="M415.021,402.369c0.199-1.326,0.398-2.652,0.596-3.978c0.191-1.272-1.776-1.636-1.968-0.361
							c-0.199,1.326-0.398,2.652-0.596,3.978C412.863,403.28,414.83,403.644,415.021,402.369L415.021,402.369z"/>
					</g>
				</g>
				<g>
					<g>
						<path style="fill:#C29659;" d="M418.538,401.157c-0.045-1.055-0.091-2.109-0.136-3.164c-0.055-1.287-2.048-1.11-1.992,0.174
							c0.045,1.055,0.091,2.109,0.136,3.164C416.601,402.618,418.593,402.441,418.538,401.157L418.538,401.157z"/>
					</g>
				</g>
			</g>
			<g>
				<g>
					<path style="fill:#C29659;" d="M387.261,409.625c1.489,4.322,5.425,7.639,9.946,8.227c1.274,0.166,1.639-1.801,0.362-1.968
						c-3.861-0.503-7.16-3.262-8.433-6.958C388.717,407.711,386.841,408.406,387.261,409.625L387.261,409.625z"/>
				</g>
			</g>
			<g>
				<g>
					<path style="fill:#C29659;" d="M395.599,408.561c0.775,0.239,1.719,0.27,2.484-0.004c1.857-0.664,1.875-2.683,1.5-4.309
						c-0.122-0.527-0.827-0.759-1.286-0.589c-0.56,0.208-0.711,0.758-0.589,1.286c0.078,0.339,0.135,0.722,0.111,1.071
						c-0.011,0.159-0.056,0.355-0.134,0.466c0.133-0.19-0.061,0.078-0.096,0.109c0.191-0.173-0.053,0.034-0.103,0.058
						c0.249-0.122-0.052,0.01-0.101,0.031c-0.257,0.11,0.068,0.009-0.091,0.028c-0.19,0.023-0.374,0.035-0.565,0.034
						c0.306,0.001-0.189-0.026-0.29-0.043c-0.161-0.026-0.323-0.059-0.479-0.107c-0.516-0.159-1.076,0.316-1.165,0.803
						C394.689,407.98,395.081,408.401,395.599,408.561L395.599,408.561z"/>
				</g>
			</g>
			<g>
				<g>
					<path style="fill:#C29659;" d="M409.803,407.23c-4.849-1.114-5.962,4.424-3.651,7.679c2.29,3.227,9.96,7.666,13.037,3.027
						c2.603-3.924-3.907-8.007-7.054-8.555c-1.832-0.319-3.871,0.261-4.376,2.274c-0.549,2.185,1.591,3.817,3.37,4.517
						c1.524,0.599,4.572,1.018,4.833-1.319c0.242-2.164-2.802-3.076-4.414-3.473c-1.252-0.309-1.606,1.661-0.362,1.967
						c0.431,0.106,0.858,0.237,1.27,0.404c0.6,0.243,1.691,0.547,1.016,0.923c-1.04,0.579-3.857-1.375-3.723-2.45
						c0.39-3.12,6.92,1.521,7.616,2.835c1.001,1.888-0.771,2.791-2.508,2.729c-1.936-0.068-3.888-1.094-5.373-2.28
						c-1.411-1.127-3.502-3.555-2.429-5.546c0.472-0.876,1.504-0.967,2.385-0.765C410.698,409.486,411.054,407.517,409.803,407.23
						L409.803,407.23z"/>
				</g>
			</g>
			<g>
				<g>
					<g>
						<path style="fill:#C29659;" d="M390.17,327.281c23.763-0.976,41.451,19.797,48.002,40.518
							c0.388,1.227,2.263,0.529,1.875-0.698c-6.84-21.635-25.377-42.826-50.051-41.812
							C388.709,325.342,388.886,327.334,390.17,327.281L390.17,327.281z"/>
					</g>
				</g>
				<g>
					<g>
						<path style="fill:#C29659;" d="M422.361,347.63c9.09,7.609,13.018,21.069,14.198,32.302c0.134,1.279,2.127,1.108,1.992-0.174
							c-1.24-11.793-5.395-25.7-14.905-33.66C422.658,345.27,421.372,346.802,422.361,347.63L422.361,347.63z"/>
					</g>
				</g>
			</g>
			<g>
				<g>
					<g>
						<path style="fill:#C29659;" d="M331.623,412.685c10.804,9.44,26.911,11.281,40.347,7.968c1.246-0.307,0.542-2.18-0.698-1.875
							c-12.739,3.141-28.13,1.316-38.363-7.625C331.937,410.305,330.653,411.838,331.623,412.685L331.623,412.685z"/>
					</g>
				</g>
				<g>
					<g>
						<path style="fill:#C29659;" d="M346.053,422.804c10.466,4.952,23.064,3.591,32.803-2.232c1.104-0.66-0.055-2.291-1.156-1.632
							c-9.113,5.449-21.008,6.685-30.792,2.056C345.742,420.444,344.889,422.253,346.053,422.804L346.053,422.804z"/>
					</g>
				</g>
			</g>
		</g>
		<g>
			<g>
				<g>
					<path style="fill:#49392C;" d="M383.26,371.132c4.105-0.414,8.21-0.829,12.315-1.243c0.978-0.099,1.249-1.475,0.34-1.9
						c-3.737-1.75-7.473-3.5-11.21-5.25c0.113,0.516,0.226,1.031,0.339,1.547c1.479-2.008,2.958-4.016,4.438-6.024
						c0.599-0.813-0.142-1.879-1.115-1.58c-2.384,0.731-4.769,1.462-7.153,2.193c0.448,0.283,0.897,0.567,1.345,0.85
						c-0.414-4.105-0.829-8.21-1.243-12.315c-0.099-0.978-1.475-1.249-1.9-0.34c-1.75,3.736-3.5,7.473-5.25,11.21
						c0.516-0.113,1.031-0.226,1.547-0.339c-2.008-1.479-4.016-2.959-6.024-4.438c-0.813-0.599-1.879,0.142-1.58,1.115
						c0.731,2.384,1.462,4.769,2.193,7.153c0.283-0.448,0.567-0.897,0.85-1.345c-4.105,0.414-8.21,0.829-12.315,1.243
						c-0.978,0.099-1.249,1.475-0.34,1.9c3.737,1.75,7.473,3.5,11.209,5.25c-0.113-0.516-0.226-1.031-0.339-1.547
						c-1.479,2.008-2.958,4.016-4.438,6.024c-0.599,0.813,0.142,1.879,1.115,1.58c2.384-0.731,4.769-1.462,7.154-2.193
						c-0.448-0.284-0.897-0.567-1.345-0.85c0.414,4.105,0.829,8.21,1.243,12.315c0.099,0.978,1.475,1.249,1.9,0.34
						c1.75-3.737,3.5-7.473,5.25-11.21c-0.516,0.113-1.031,0.226-1.547,0.339c2.008,1.479,4.016,2.958,6.024,4.438
						c0.813,0.599,1.879-0.142,1.58-1.115c-0.731-2.385-1.462-4.769-2.193-7.154c-0.377-1.23-2.252-0.531-1.875,0.698
						c0.731,2.384,1.462,4.769,2.194,7.153c0.527-0.372,1.053-0.743,1.58-1.115c-2.008-1.479-4.016-2.958-6.024-4.438
						c-0.512-0.377-1.26-0.274-1.547,0.339c-1.75,3.737-3.5,7.473-5.25,11.21c0.633,0.113,1.267,0.227,1.9,0.34
						c-0.414-4.105-0.829-8.21-1.243-12.315c-0.068-0.675-0.723-1.041-1.345-0.85c-2.384,0.731-4.769,1.462-7.153,2.193
						c0.372,0.527,0.743,1.053,1.115,1.58c1.479-2.008,2.958-4.016,4.438-6.024c0.377-0.512,0.274-1.26-0.339-1.547
						c-3.737-1.75-7.473-3.5-11.209-5.25c-0.113,0.634-0.227,1.267-0.34,1.9c4.105-0.414,8.21-0.829,12.315-1.243
						c0.675-0.068,1.041-0.723,0.85-1.345c-0.731-2.384-1.462-4.769-2.193-7.153c-0.527,0.372-1.053,0.743-1.58,1.115
						c2.008,1.479,4.016,2.958,6.024,4.438c0.512,0.377,1.26,0.274,1.547-0.339c1.75-3.736,3.5-7.473,5.25-11.209
						c-0.633-0.114-1.267-0.227-1.9-0.34c0.414,4.105,0.829,8.21,1.243,12.315c0.068,0.675,0.723,1.041,1.345,0.85
						c2.384-0.731,4.769-1.462,7.153-2.193c-0.372-0.527-0.743-1.053-1.115-1.58c-1.479,2.008-2.958,4.016-4.438,6.024
						c-0.377,0.512-0.274,1.26,0.339,1.547c3.737,1.75,7.473,3.5,11.21,5.25c0.113-0.633,0.227-1.267,0.34-1.9
						c-4.105,0.414-8.21,0.829-12.315,1.243C381.806,369.269,381.977,371.262,383.26,371.132z"/>
				</g>
			</g>
			<g>
				<g>
					<path style="fill:#49392C;" d="M350.477,359.977c2.309-0.233,4.617-0.466,6.926-0.699c0.978-0.099,1.249-1.475,0.34-1.9
						c-2.101-0.984-4.203-1.968-6.304-2.952c0.113,0.516,0.226,1.031,0.339,1.547c0.832-1.129,1.664-2.259,2.496-3.388
						c0.599-0.813-0.142-1.879-1.115-1.58c-1.341,0.411-2.682,0.822-4.023,1.234c0.448,0.283,0.897,0.567,1.345,0.85
						c-0.233-2.309-0.466-4.617-0.699-6.926c-0.099-0.978-1.475-1.249-1.9-0.34c-0.984,2.101-1.968,4.203-2.952,6.304
						c0.516-0.113,1.031-0.226,1.547-0.339c-1.129-0.832-2.259-1.664-3.388-2.496c-0.813-0.599-1.879,0.142-1.58,1.115
						c0.411,1.341,0.822,2.682,1.234,4.023c0.283-0.448,0.567-0.897,0.85-1.345c-2.309,0.233-4.617,0.466-6.926,0.699
						c-0.978,0.099-1.249,1.475-0.34,1.9c2.101,0.984,4.203,1.968,6.304,2.952c-0.113-0.516-0.226-1.031-0.339-1.547
						c-0.832,1.129-1.664,2.259-2.496,3.388c-0.599,0.813,0.142,1.878,1.115,1.58c1.341-0.411,2.682-0.822,4.023-1.234
						c-0.448-0.283-0.897-0.567-1.345-0.85c0.233,2.309,0.466,4.617,0.699,6.926c0.099,0.978,1.475,1.249,1.9,0.34
						c0.984-2.101,1.968-4.203,2.952-6.304c-0.516,0.113-1.031,0.226-1.547,0.339c1.129,0.832,2.258,1.664,3.388,2.496
						c0.813,0.599,1.879-0.142,1.58-1.115c-0.411-1.341-0.822-2.682-1.234-4.023c-0.377-1.23-2.252-0.531-1.875,0.698
						c0.411,1.341,0.822,2.682,1.234,4.023c0.527-0.372,1.053-0.743,1.58-1.115c-1.129-0.832-2.259-1.664-3.388-2.496
						c-0.511-0.377-1.26-0.274-1.547,0.339c-0.984,2.101-1.968,4.203-2.952,6.304c0.634,0.113,1.267,0.227,1.9,0.34
						c-0.233-2.309-0.466-4.617-0.699-6.926c-0.068-0.675-0.723-1.041-1.345-0.85c-1.341,0.411-2.682,0.822-4.023,1.234
						c0.372,0.527,0.743,1.053,1.115,1.58c0.832-1.129,1.664-2.259,2.496-3.388c0.377-0.512,0.274-1.26-0.339-1.547
						c-2.101-0.984-4.203-1.968-6.304-2.952c-0.113,0.633-0.227,1.267-0.34,1.9c2.309-0.233,4.617-0.466,6.926-0.699
						c0.675-0.068,1.041-0.723,0.85-1.345c-0.411-1.341-0.822-2.682-1.233-4.023c-0.527,0.372-1.053,0.743-1.58,1.115
						c1.129,0.832,2.259,1.664,3.388,2.496c0.512,0.377,1.26,0.274,1.547-0.339c0.984-2.101,1.968-4.203,2.952-6.304
						c-0.633-0.114-1.267-0.227-1.9-0.34c0.233,2.309,0.466,4.617,0.699,6.926c0.068,0.675,0.723,1.041,1.345,0.85
						c1.341-0.411,2.682-0.822,4.023-1.234c-0.372-0.527-0.743-1.053-1.115-1.58c-0.832,1.129-1.664,2.259-2.496,3.388
						c-0.377,0.512-0.274,1.26,0.339,1.547c2.101,0.984,4.203,1.968,6.304,2.952c0.113-0.634,0.227-1.267,0.34-1.9
						c-2.309,0.233-4.617,0.466-6.926,0.699C349.023,358.114,349.194,360.106,350.477,359.977z"/>
				</g>
			</g>
			<g>
				<g>
					<path style="fill:#C29659;" d="M358.935,388.977c3.156-0.319,6.312-0.637,9.469-0.956c0.978-0.099,1.249-1.475,0.34-1.9
						c-2.873-1.345-5.746-2.691-8.618-4.036c0.113,0.516,0.226,1.031,0.339,1.547c1.137-1.544,2.275-3.088,3.412-4.632
						c0.599-0.813-0.142-1.878-1.115-1.58c-1.833,0.562-3.667,1.124-5.5,1.686c0.448,0.284,0.897,0.567,1.345,0.85
						c-0.319-3.156-0.637-6.312-0.956-9.469c-0.099-0.978-1.475-1.249-1.9-0.34c-1.345,2.873-2.691,5.746-4.036,8.618
						c0.516-0.113,1.031-0.226,1.547-0.339c-1.544-1.137-3.088-2.275-4.632-3.412c-0.813-0.599-1.878,0.142-1.58,1.115
						c0.562,1.833,1.124,3.667,1.686,5.5c0.284-0.448,0.567-0.897,0.85-1.345c-3.156,0.319-6.312,0.637-9.469,0.956
						c-0.978,0.099-1.249,1.475-0.34,1.9c2.873,1.345,5.746,2.691,8.618,4.036c-0.113-0.516-0.226-1.031-0.339-1.547
						c-1.137,1.544-2.275,3.088-3.412,4.632c-0.599,0.813,0.142,1.879,1.115,1.58c1.833-0.562,3.667-1.124,5.5-1.686
						c-0.448-0.283-0.897-0.567-1.345-0.85c0.319,3.156,0.637,6.312,0.956,9.469c0.099,0.978,1.475,1.249,1.9,0.34
						c1.345-2.873,2.691-5.746,4.036-8.618c-0.516,0.113-1.031,0.226-1.547,0.339c1.544,1.137,3.088,2.275,4.632,3.412
						c0.813,0.599,1.879-0.142,1.58-1.115c-0.562-1.833-1.124-3.667-1.686-5.5c-0.377-1.23-2.252-0.531-1.875,0.698
						c0.562,1.833,1.124,3.667,1.686,5.5c0.527-0.372,1.053-0.743,1.58-1.115c-1.544-1.137-3.088-2.275-4.632-3.412
						c-0.512-0.377-1.26-0.274-1.547,0.339c-1.345,2.873-2.691,5.745-4.036,8.618c0.634,0.113,1.267,0.227,1.9,0.34
						c-0.319-3.156-0.637-6.312-0.956-9.469c-0.068-0.675-0.723-1.041-1.345-0.85c-1.833,0.562-3.667,1.124-5.5,1.686
						c0.372,0.527,0.743,1.053,1.115,1.58c1.137-1.544,2.275-3.088,3.412-4.632c0.377-0.512,0.274-1.26-0.339-1.547
						c-2.873-1.345-5.746-2.691-8.618-4.036c-0.114,0.634-0.227,1.267-0.34,1.9c3.156-0.319,6.312-0.637,9.469-0.956
						c0.675-0.068,1.041-0.723,0.85-1.345c-0.562-1.833-1.124-3.667-1.686-5.5c-0.527,0.372-1.053,0.743-1.58,1.115
						c1.544,1.137,3.088,2.275,4.632,3.412c0.512,0.377,1.26,0.274,1.547-0.339c1.345-2.873,2.691-5.746,4.036-8.618
						c-0.634-0.113-1.267-0.227-1.9-0.34c0.319,3.156,0.637,6.312,0.956,9.469c0.068,0.675,0.723,1.041,1.345,0.85
						c1.833-0.562,3.667-1.124,5.5-1.686c-0.372-0.527-0.743-1.053-1.115-1.58c-1.137,1.544-2.275,3.088-3.412,4.632
						c-0.377,0.512-0.274,1.26,0.339,1.547c2.873,1.345,5.746,2.691,8.618,4.036c0.113-0.633,0.227-1.267,0.34-1.9
						c-3.156,0.319-6.312,0.637-9.469,0.956C357.481,387.114,357.652,389.107,358.935,388.977z"/>
				</g>
			</g>
		</g>
	</g>
	<g>
		<g>
			<g>
				<g>
					<g>
						<path style="fill:#49392C;" d="M119.838,86.885c-2.887-6.428,4.492-10.464,4.704-16.571c0.1-2.871-1.185-4.088-2.553-6.407
							c-2.525-4.28-1.289-8.558,0.687-12.829c-0.629-0.203-1.259-0.405-1.888-0.608c-1.121,4.107-0.192,8.119,2.142,11.575
							c1.997,2.957,4.528,5.387,4.08,9.273c-0.297,2.573-1.941,4.589-1.126,7.219c0.381,1.229,2.256,0.531,1.875-0.698
							c-0.709-2.286,1.238-4.873,1.339-7.222c0.075-1.733-0.414-3.289-1.179-4.84c-2.553-5.176-6.902-8.582-5.164-14.947
							c0.302-1.108-1.421-1.618-1.888-0.608c-1.401,3.029-2.648,6.27-2.339,9.673c0.33,3.635,3.501,5.847,3.991,9.254
							c0.691,4.795-4.31,7.89-5.205,12.33c-0.401,1.988-0.187,4.244,0.648,6.103C118.487,88.749,120.367,88.063,119.838,86.885
							L119.838,86.885z"/>
					</g>
				</g>
				<g>
					<g>
						<path style="fill:#49392C;" d="M130.983,71.278c1.401-1.359,1.707-3.602,1.513-5.436c-0.526-4.991-4.153-8.411-2.184-13.629
							c0.452-1.199-1.354-2.06-1.808-0.855c-1.073,2.842-1.143,5.264-0.205,8.155c0.96,2.96,4.009,7.708,1.152,10.479
							C128.527,70.889,130.067,72.167,130.983,71.278L130.983,71.278z"/>
					</g>
				</g>
			</g>
			<g>
				<g>
					<g>
						<path style="fill:#49392C;" d="M104.461,97.746c-6.303-2.983-3.321-10.632-6.8-15.453c-1.36-1.884-3.104-2.617-5.245-3.277
							c-5.347-1.65-7.371-5.414-8.761-10.584c-0.625,0.233-1.25,0.465-1.875,0.698c1.539,3.376,4.4,6.118,7.918,7.32
							c4.398,1.503,8.447,1.288,10.843,5.872c1.044,1.996,1.273,4.033,3.319,5.213c1.117,0.644,1.963-1.17,0.855-1.808
							c-2.135-1.231-2.287-4.999-3.953-6.861c-1.124-1.256-2.579-2.029-4.126-2.649c-5.046-2.021-10.416-2.157-12.981-7.784
							c-0.538-1.18-2.208-0.543-1.875,0.698c0.948,3.527,2.287,7.194,5.212,9.585c3.355,2.743,8.159,1.921,9.99,6.565
							c2.116,5.369,0.328,11.294,6.625,14.275C104.771,100.106,105.625,98.297,104.461,97.746L104.461,97.746z"/>
					</g>
				</g>
				<g>
					<g>
						<path style="fill:#49392C;" d="M103.017,78.841c0.269-2.319-1.242-4.51-2.966-5.891c-3.718-2.979-8.134-3.583-9.816-8.558
							c-0.412-1.219-2.288-0.523-1.875,0.698c1.028,3.039,2.814,4.962,5.556,6.582c2.378,1.406,7.551,3.212,7.134,6.808
							C100.902,79.754,102.868,80.121,103.017,78.841L103.017,78.841z"/>
					</g>
				</g>
			</g>
			<g>
				<g>
					<g>
						<path style="fill:#49392C;" d="M99.634,116.014c-6.851,1.756-9.34-6.247-15.241-7.544c-2.673-0.588-4.312,0.404-6.768,1.356
							c-4.64,1.799-8.677-0.142-12.529-2.821c-0.357,0.557-0.714,1.114-1.07,1.67c3.918,1.838,7.999,1.642,11.886-0.094
							c2.907-1.298,5.839-3.395,9.21-2.578c2.685,0.651,4.537,2.938,7.415,2.573c1.274-0.162,1.106-2.155-0.174-1.992
							c-2.608,0.331-5.097-2.353-7.678-2.702c-1.278-0.173-2.543,0.017-3.782,0.331c-5.68,1.44-9.818,5.563-16.021,2.654
							c-0.995-0.467-2.028,1.004-1.07,1.67c2.896,2.014,6.051,3.924,9.68,4.075c4.144,0.172,7.4-3.343,11.612-1.807
							c3.914,1.428,5.664,5.773,9.781,6.98c1.747,0.512,3.683,0.556,5.448,0.103C101.575,117.57,100.872,115.697,99.634,116.014
							L99.634,116.014z"/>
					</g>
				</g>
				<g>
					<g>
						<path style="fill:#49392C;" d="M86.418,102.346c-1.062-1.579-3.091-2.308-4.895-2.486c-5.199-0.513-9.203,2.646-14.197-0.316
							c-1.109-0.658-1.954,1.157-0.855,1.808c2.891,1.715,5.512,1.956,8.791,1.368c2.754-0.494,7.518-2.198,9.523,0.782
							C85.504,104.57,87.137,103.416,86.418,102.346L86.418,102.346z"/>
					</g>
				</g>
			</g>
			<g>
				<g>
					<g>
						<path style="fill:#49392C;" d="M107.878,132.932c-4.048,5.682-11.093,1.478-16.486,4.106
							c-2.302,1.121-3.148,2.817-4.261,4.965c-2.417,4.662-6.68,5.939-11.692,6.382c0.145,0.645,0.291,1.289,0.436,1.934
							c3.742-0.968,6.968-3.56,8.658-7.015c1.638-3.348,2.505-7.224,6.286-8.798c2.331-0.971,5.063-0.556,6.797-2.625
							c0.828-0.988-0.704-2.274-1.532-1.285c-1.512,1.805-4.871,1.382-6.933,2.46c-1.575,0.822-2.692,2.063-3.661,3.538
							c-3.143,4.782-3.979,10.212-10.312,11.85c-1.11,0.287-0.661,2.031,0.436,1.934c3.645-0.322,7.489-0.988,10.373-3.43
							c2.729-2.311,3.097-6.554,6.383-8.091c4.007-1.875,8.417,0.401,12.516-1.191c1.742-0.676,3.434-1.916,4.524-3.447
							C110.152,133.175,108.626,131.882,107.878,132.932L107.878,132.932z"/>
					</g>
				</g>
				<g>
					<g>
						<path style="fill:#49392C;" d="M88.791,131.09c-2.148-0.626-4.548,0.557-6.125,1.92c-3.567,3.082-4.88,7.378-10.063,8.192
							c-1.264,0.199-1.1,2.193,0.174,1.992c3.105-0.488,5.287-1.759,7.353-4.112c2.025-2.307,4.558-7.115,8.299-6.025
							C89.666,133.417,90.016,131.446,88.791,131.09L88.791,131.09z"/>
					</g>
				</g>
			</g>
			<g>
				<g>
					<g>
						<path style="fill:#49392C;" d="M124.967,140.829c0.547,6.899-7.541,8.221-9.978,13.657c-0.987,2.202-0.658,3.911-0.216,6.149
							c1.081,5.484-0.896,8.946-4.785,12.86c0.511,0.428,1.021,0.857,1.532,1.286c2.543-3.596,3.077-7.64,2.015-11.831
							c-1.054-4.159-2.418-7.151,0.029-11.012c1.21-1.909,2.86-3.124,2.859-5.491c-0.001-1.287-1.993-1.105-1.992,0.174
							c0.001,2.166-2.825,4.149-3.671,6.08c-0.632,1.445-0.777,2.965-0.667,4.527c0.41,5.797,3.8,10.746-0.106,16.268
							c-0.746,1.055,0.622,2.202,1.532,1.286c2.48-2.495,4.876-5.325,5.617-8.87c0.926-4.432-2.436-8.525,0.908-12.505
							c3.649-4.342,9.455-5.949,8.915-12.751C126.858,139.372,124.866,139.545,124.967,140.829L124.967,140.829z"/>
					</g>
				</g>
				<g>
					<g>
						<path style="fill:#49392C;" d="M109.303,151.531c-1.849,0.814-2.977,2.767-3.444,4.65c-1.212,4.888,1.031,9.381-2.66,13.633
							c-0.845,0.974,0.688,2.258,1.532,1.285c1.997-2.302,2.835-4.621,2.922-7.665c0.083-2.893-1.129-8.498,2.347-10.029
							C111.173,152.891,110.486,151.011,109.303,151.531L109.303,151.531z"/>
					</g>
				</g>
			</g>
			<g>
				<g>
					<g>
						<path style="fill:#49392C;" d="M143.196,135.865c5.016,5.127-0.976,11.625,1.266,17.503c0.769,2.016,2.037,2.923,3.658,4.197
							c4.318,3.394,5.012,7.383,4.55,12.712c0.66,0.031,1.32,0.062,1.98,0.094c-0.308-3.907-2.268-7.428-5.352-9.789
							c-2.987-2.285-6.654-3.649-7.625-7.674c-0.587-2.435,0.363-5.119-1.367-7.178c-0.822-0.978-2.463,0.168-1.632,1.156
							c1.693,2.016,0.508,5.592,1.501,8.01c0.638,1.553,1.779,2.774,3.012,3.878c4.087,3.66,8.981,5.543,9.471,11.772
							c0.086,1.091,1.88,1.243,1.98,0.094c0.303-3.501,0.359-7.145-1.284-10.351c-1.636-3.193-5.742-4.41-7.017-7.618
							c-1.763-4.435,1.869-8.898,0.801-13.451c-0.426-1.818-1.347-3.549-2.656-4.887
							C143.581,133.413,142.302,134.952,143.196,135.865L143.196,135.865z"/>
					</g>
				</g>
				<g>
					<g>
						<path style="fill:#49392C;" d="M137.977,154.14c-0.864,1.766-0.442,3.922,0.354,5.616c2.211,4.703,6.844,6.549,6.761,12.335
							c-0.018,1.286,1.974,1.102,1.992-0.174c0.046-3.218-0.976-5.593-3.012-8.066c-1.813-2.201-5.905-5.546-4.287-8.855
							C140.352,153.836,138.542,152.984,137.977,154.14L137.977,154.14z"/>
					</g>
				</g>
			</g>
			<g>
				<g>
					<g>
						<path style="fill:#49392C;" d="M153.724,120.271c6.709,0.626,6.772,8.27,11.247,11.795c1.824,1.437,3.639,1.796,5.9,1.774
							c5.963-0.059,8.935,1.796,12.465,6.804c0.486-0.448,0.973-0.896,1.459-1.344c-2.988-3.03-6.926-4.231-11.084-3.928
							c-3.546,0.259-7.012,1.234-10.082-1.108c-2.005-1.529-3.014-4.111-5.669-4.577c-1.269-0.223-1.63,1.745-0.362,1.968
							c2.308,0.405,3.634,3.514,5.594,4.771c1.451,0.931,3.064,1.287,4.776,1.4c5.746,0.378,10.9-1.699,15.542,3.007
							c0.811,0.822,2.099-0.437,1.459-1.344c-2.238-3.175-4.923-6.356-8.807-7.467c-4.091-1.169-7.785,1.091-11.056-2.672
							c-3.694-4.249-4.238-10.413-11.019-11.046C152.812,118.184,152.442,120.151,153.724,120.271L153.724,120.271z"/>
					</g>
				</g>
				<g>
					<g>
						<path style="fill:#49392C;" d="M161.683,137.736c0.501,2.07,2.57,3.5,4.426,4.217c4.518,1.744,9.046,0.556,12.424,4.737
							c0.805,0.996,2.444-0.151,1.632-1.156c-2.09-2.587-4.39-3.782-7.65-4.381c-2.852-0.524-8.073-0.464-8.957-4.114
							C163.256,135.791,161.383,136.496,161.683,137.736L161.683,137.736z"/>
					</g>
				</g>
			</g>
			<g>
				<g>
					<g>
						<path style="fill:#49392C;" d="M152.029,101.52c6.172-4.192,11.747,3.38,18.206,1.57c2.498-0.7,3.402-2.537,5.411-4.008
							c3.672-2.688,8.026-2.012,12.151-0.92c0.12-0.656,0.241-1.312,0.362-1.967c-3.614-0.341-7.354,0.697-10.141,3.041
							c-2.674,2.249-4.435,5.675-8.1,6.511c-2.873,0.655-5.813-1.149-8.532,0.25c-1.129,0.581-0.448,2.465,0.698,1.875
							c2.359-1.214,5.562,0.414,8.134-0.108c1.654-0.336,3.061-1.224,4.371-2.255c4.305-3.388,7.003-7.932,13.209-7.346
							c1.281,0.121,1.613-1.636,0.362-1.967c-3.228-0.854-6.645-1.508-9.939-0.576c-3.549,1.004-5.955,5.197-9.472,5.741
							c-4.284,0.662-7.757-3.155-11.999-3.212c-2.035-0.027-4.185,0.592-5.875,1.74C149.809,100.611,150.963,102.244,152.029,101.52
							L152.029,101.52z"/>
					</g>
				</g>
				<g>
					<g>
						<path style="fill:#49392C;" d="M169.12,109.732c1.527,1.104,3.583,1.195,5.36,0.764c5.056-1.226,7.831-5.688,13.524-4.616
							c1.267,0.239,1.627-1.729,0.362-1.967c-2.773-0.522-5.085-0.238-7.612,1.039c-2.732,1.38-7.164,5.55-10.348,3.248
							C169.367,107.45,168.075,108.977,169.12,109.732L169.12,109.732z"/>
					</g>
				</g>
			</g>
			<g>
				<g>
					<g>
						<path style="fill:#49392C;" d="M138.611,88.226c1.811-6.607,9.897-5.08,13.98-9.271c1.665-1.709,2.016-3.455,2.345-5.721
							c0.794-5.459,3.818-8.124,8.755-10.431c-0.309-0.584-0.618-1.169-0.927-1.754c-3.226,2.217-5.291,5.674-5.795,9.52
							c-0.49,3.735,0.168,7.593-2.839,10.451c-1.81,1.72-4.609,2.24-5.524,4.76c-0.437,1.202,1.369,2.065,1.808,0.855
							c0.901-2.48,4.585-3.239,6.186-5.309c1.027-1.328,1.516-2.926,1.856-4.546c1.13-5.376,0.309-10.554,5.464-14.098
							c0.91-0.625,0.122-2.244-0.927-1.754c-3.094,1.446-6.181,3.156-8.154,6.041c-2.694,3.937-0.851,8.909-5.286,11.752
							c-3.197,2.05-7.143,1.723-10.019,4.432c-1.35,1.272-2.397,2.913-2.89,4.712C136.303,89.107,138.273,89.458,138.611,88.226
							L138.611,88.226z"/>
					</g>
				</g>
				<g>
					<g>
						<path style="fill:#49392C;" d="M157.053,83.6c2.166-0.128,4.004-1.906,5.041-3.665c2.514-4.263,2.154-8.844,6.946-11.474
							c1.126-0.618-0.037-2.246-1.156-1.632c-3.071,1.686-4.573,4.055-5.71,7.31c-0.889,2.546-1.845,7.265-5.295,7.469
							C155.593,81.684,155.768,83.676,157.053,83.6L157.053,83.6z"/>
					</g>
				</g>
			</g>
		</g>
		<g>
			<g>
				<g>
					<g>
						<g>
							<path style="fill:#C29659;" d="M127.583,89.963c-1.745-4.924-1.064-10.469,2.169-14.605c2.199-2.814,6.608-5.487,6.831-9.423
								c0.115-2.036-1.057-3.82-1.514-5.736c-1.213-5.076,1.62-7.822,4.905-11.092c3.313-3.298,4.017-6.484,2.546-10.917
								c-0.585,0.309-1.169,0.618-1.754,0.927c3.005,3.338,5.04,9.498,3.108,13.733c-1.535,3.364-4.154,4.394-3.518,8.499
								c0.512,3.298,2.195,6.176,2.438,9.588c0.324,4.556-1.811,6.69-4.086,10.184c-2.63,4.038-2.607,7.747-1.382,12.301
								c0.333,1.241,2.207,0.539,1.875-0.698c-1.363-5.069-0.564-8.105,2.462-12.239c1.407-1.922,2.599-3.678,3.033-6.063
								c0.978-5.384-4.318-12.868-1.471-17.269c2.341-3.62,3.811-5.836,3.101-10.454c-0.478-3.107-1.8-6.374-3.928-8.738
								c-0.729-0.809-2.133-0.216-1.754,0.927c2.525,7.607-5.247,9.547-7.415,15.707c-1.916,5.445,3.284,9.995-0.581,14.684
								c-3.337,4.048-7.032,6.939-7.806,12.442c-0.415,2.952-0.133,6.122,0.866,8.941C126.138,91.873,128.014,91.179,127.583,89.963
								L127.583,89.963z"/>
						</g>
					</g>
					<g>
						<g>
							<path style="fill:#C29659;" d="M132.536,89.469c-1.274-2.055,0.026-5.141,0.964-7.018c2.09-4.178,4.891-6.646,5.6-11.437
								c1.128-7.618-1.808-14.312,4.197-20.665c0.886-0.937-0.65-2.219-1.532-1.286c-2.122,2.245-3.948,5.127-4.53,8.192
								c-0.93,4.899,0.796,9.881-0.365,14.813c-1.267,5.377-9.819,12.341-5.967,18.556
								C131.582,91.719,133.213,90.561,132.536,89.469L132.536,89.469z"/>
						</g>
					</g>
				</g>
				<g>
					<g>
						<path style="fill:#C29659;" d="M147.788,76.341c2.429-2.249,1.499-5.754,0.66-8.479c-2.166-7.042,0.365-10.853,6.667-14.863
							c1.086-0.691-0.07-2.323-1.156-1.632c-4.135,2.631-8.498,6.113-8.617,11.444c-0.08,3.589,3.972,9.412,0.914,12.244
							C145.313,75.929,146.854,77.205,147.788,76.341L147.788,76.341z"/>
					</g>
				</g>
			</g>
			<g>
				<g>
					<g>
						<g>
							<path style="fill:#C29659;" d="M112.373,95.125c-3.998-2.339-7.158-6.651-7.617-11.292
								c-0.378-3.818,1.678-9.448-0.884-12.878c-1.19-1.592-3.155-2.198-4.725-3.3c-3.94-2.766-4.086-6.744-3.573-11.133
								c0.582-4.982-0.709-8.02-5.037-10.659c-0.203,0.629-0.406,1.259-0.608,1.888c5.05,0.71,10.779,4.773,11.361,10.053
								c0.441,4.002,0.319,5.653,3.84,8.116c2.918,2.041,6.251,3.666,8.303,6.715c1.968,2.925,1.422,6.011,1.924,9.292
								c0.665,4.346,3.079,7.064,6.621,9.515c1.051,0.727,2.345-0.799,1.286-1.532c-3.069-2.124-5.277-4.377-5.914-8.157
								c-0.446-2.647-0.015-5.324-1.008-7.886c-2.127-5.49-7.584-6.664-11.34-10.452c-2.423-2.444-1.246-4.522-1.947-7.406
								c-0.486-2-1.66-3.639-3.073-5.098c-2.512-2.591-6.078-4.62-9.691-5.127c-1.173-0.165-1.555,1.31-0.608,1.888
								c6.923,4.221,1.779,11.44,4.679,17.587c0.837,1.774,2.114,3.1,3.731,4.184c3.12,2.09,4.971,2.654,4.927,6.741
								c-0.056,5.223-0.872,9.815,2.056,14.481c1.583,2.522,3.865,4.76,6.444,6.268C112.631,97.584,113.476,95.77,112.373,95.125
								L112.373,95.125z"/>
						</g>
					</g>
					<g>
						<g>
							<path style="fill:#C29659;" d="M115.492,91.878c-2.357-1.006-3.196-4.814-3.527-6.98c-0.582-3.803-0.445-7.174-2.313-10.661
								c-3.753-7.007-11.188-10.333-10.655-19.344c0.075-1.27-1.892-1.644-1.968-0.361c-0.188,3.184,0.216,6.651,1.833,9.452
								c2.248,3.896,6.227,6.486,8.555,10.357c2.981,4.958,1.484,10.773,4.046,15.815c0.691,1.359,1.702,2.902,3.174,3.529
								C115.821,94.191,116.678,92.384,115.492,91.878L115.492,91.878z"/>
						</g>
					</g>
				</g>
				<g>
					<g>
						<path style="fill:#C29659;" d="M119.144,71.918c0.452-3.58-2.677-5.695-5.331-7.333c-6.052-3.734-6.089-9.056-4.027-15.512
							c0.391-1.225-1.581-1.572-1.968-0.361c-1.466,4.591-2.531,10.011,0.688,14.13c2.102,2.69,9.149,4.925,8.671,8.714
							C117.016,72.83,118.983,73.196,119.144,71.918L119.144,71.918z"/>
					</g>
				</g>
			</g>
			<g>
				<g>
					<g>
						<g>
							<path style="fill:#C29659;" d="M104.271,108.862c-4.147,0.703-8.949-0.165-12.262-2.829
								c-3.341-2.687-5.216-8.775-9.606-10.097c-2.157-0.65-4.062,0.339-6.201,0.512c-4.639,0.374-7.478-2.802-9.808-6.372
								c-2.654-4.065-5.618-5.657-10.516-4.913c0.222,0.604,0.444,1.208,0.665,1.812c4.857-3.022,11.538-2.907,15.649,1.075
								c2.762,2.675,4.102,3.549,8.213,3.038c3.317-0.412,6.691-0.996,9.978-0.069c3.323,0.937,4.922,3.485,7.339,5.662
								c3.379,3.044,7.025,3.614,11.459,3.211c1.281-0.116,1.11-2.109-0.174-1.992c-4.225,0.384-7.346-0.17-10.46-3.177
								c-1.702-1.644-3.001-3.553-5.134-4.701c-2.03-1.093-4.313-1.456-6.592-1.498c-3.28-0.061-7.578,1.665-10.556,0.374
								c-1.948-0.845-2.873-2.873-4.588-4.093c-1.819-1.294-4.021-1.727-6.212-1.852c-3.441-0.196-7.122,0.55-10.078,2.39
								c-0.83,0.516-0.306,1.96,0.665,1.812c7.622-1.157,8.42,6.19,13.624,9.616c2.051,1.35,4.275,1.847,6.7,1.669
								c3.542-0.259,5.554-1.496,8.26,1.79c3.316,4.027,5.592,8.109,10.787,9.866c2.816,0.952,6.075,1.259,9.023,0.759
								C105.706,110.64,105.543,108.646,104.271,108.862L104.271,108.862z"/>
						</g>
					</g>
					<g>
						<g>
							<path style="fill:#C29659;" d="M105.573,103.716c-2.773,1-6.125-0.709-8.215-2.366c-3.426-2.717-5.659-5.737-9.961-7.153
								c-7.271-2.394-14.265-0.631-19.452-7.612c-0.766-1.031-2.403,0.119-1.632,1.156c1.879,2.529,4.399,4.837,7.376,5.955
								c4.523,1.698,9.592,0.937,14.126,2.763c5.932,2.39,10.798,11.895,18.456,9.132
								C107.48,105.155,106.787,103.279,105.573,103.716L105.573,103.716z"/>
						</g>
					</g>
				</g>
				<g>
					<g>
						<path style="fill:#C29659;" d="M94.322,86.676c-1.91-3.009-5.783-2.544-8.781-2.1c-6.914,1.023-10.416-2.955-12.951-9.155
							c-0.486-1.188-2.364-0.498-1.875,0.698c1.839,4.498,4.533,9.485,9.725,10.545c3.386,0.691,10.111-2.203,12.25,1.168
							C93.379,88.919,95.011,87.762,94.322,86.676L94.322,86.676z"/>
					</g>
				</g>
			</g>
			<g>
				<g>
					<g>
						<g>
							<path style="fill:#C29659;" d="M106.67,124.685c-3.376,3.963-8.552,6.182-13.731,5.431
								c-3.419-0.496-7.876-2.871-11.331-1.329c-1.538,0.687-2.383,2.02-3.445,3.247c-3.327,3.843-7.168,4.102-11.866,2.747
								c-5.014-1.446-8.339-1.186-11.933,2.856c0.557,0.357,1.113,0.714,1.67,1.07c1.541-4.742,6.273-9.577,11.435-9.532
								c4.067,0.036,5.918,0.895,9.081-2.297c2.491-2.514,4.676-5.576,8.027-7.042c3.251-1.422,6.38-0.358,9.751-0.321
								c4.38,0.049,7.444-1.954,10.455-4.985c0.908-0.914-0.63-2.194-1.532-1.286c-3.468,3.491-6.263,4.551-11.163,4.095
								c-2.021-0.188-3.854-0.573-5.883-0.142c-2.401,0.511-4.462,1.83-6.308,3.399c-2.101,1.785-4.747,6.098-7.365,6.865
								c-1.97,0.577-4.093-0.467-6.093-0.332c-2.463,0.166-4.731,1.449-6.618,2.965c-2.444,1.962-4.614,4.742-5.594,7.758
								c-0.334,1.028,0.861,1.98,1.67,1.07c5.507-6.194,11.297,0.063,17.885-1.549c5.167-1.264,6.498-7.713,12.097-6.799
								c5.13,0.837,9.475,2.698,14.637,0.763c2.909-1.091,5.665-2.994,7.686-5.366C109.038,124.99,107.506,123.704,106.67,124.685
								L106.67,124.685z"/>
						</g>
					</g>
					<g>
						<g>
							<path style="fill:#C29659;" d="M104.957,119.959c-4.107,5.864-13.204,1.953-19.047,3.719
								c-7.88,2.381-12.249,9.367-21.401,7.212c-1.256-0.296-1.611,1.673-0.362,1.968c3.569,0.841,7.368,0.801,10.717-0.774
								c4.084-1.921,7.326-5.218,11.743-6.53c6.111-1.815,15.346,2.167,19.882-4.308
								C107.223,120.197,105.697,118.903,104.957,119.959L104.957,119.959z"/>
						</g>
					</g>
				</g>
				<g>
					<g>
						<path style="fill:#C29659;" d="M84.773,114.005c-3.303-0.989-5.907,1.694-7.891,3.916c-4.788,5.36-9.75,4.663-15.984,1.413
							c-1.145-0.597-1.994,1.214-0.855,1.808c4.316,2.25,9.463,4.28,14.124,1.801c3.222-1.714,6.279-8.159,10.245-6.971
							C85.645,116.342,85.994,114.37,84.773,114.005L84.773,114.005z"/>
					</g>
				</g>
			</g>
			<g>
				<g>
					<g>
						<g>
							<path style="fill:#C29659;" d="M118.742,135.288c-0.026,4.655-2.194,9.484-5.976,12.24
								c-3.113,2.268-9.155,3.295-10.768,7.333c-0.872,2.182-0.042,4.6-0.494,6.84c-0.874,4.33-4.729,6.028-8.35,7.639
								c-4.301,1.912-6.043,4.812-6.155,9.49c0.645-0.145,1.289-0.291,1.934-0.436c-2.229-5.582-0.81-12.31,4.256-15.6
								c3.314-2.152,3.728-4.268,3.924-8.124c0.161-3.165,0.302-6.576,1.815-9.444c1.543-2.925,4.454-3.972,6.898-5.931
								c3.426-2.746,4.573-6.194,4.924-10.481c0.104-1.273-1.862-1.644-1.968-0.362c-0.305,3.725-1.153,6.766-4.113,9.21
								c-1.995,1.648-4.446,2.587-6.148,4.603c-2.955,3.5-3.172,8.223-3.401,12.579c-0.228,4.334-1.456,4.92-4.566,7.237
								c-1.536,1.144-2.601,2.563-3.335,4.325c-1.613,3.875-1.725,8.771-0.162,12.685c0.441,1.105,1.908,0.653,1.934-0.436
								c0.194-8.097,9.019-7.265,12.887-12.835c1.125-1.619,1.631-3.389,1.762-5.334c0.283-4.197-0.117-5.768,3.879-7.9
								c4.583-2.445,8.856-4.319,11.262-9.231c1.238-2.526,1.937-5.427,1.953-8.244C120.741,133.827,118.749,134.01,118.742,135.288
								L118.742,135.288z"/>
						</g>
					</g>
					<g>
						<g>
							<path style="fill:#C29659;" d="M113.624,134.007c0.796,2.931-2.697,6.091-4.679,7.581c-2.973,2.235-5.594,4.02-7.452,7.353
								c-3.724,6.68-3.139,14.147-10.92,18.046c-1.137,0.57-0.455,2.452,0.698,1.875c2.853-1.429,5.619-3.51,7.251-6.299
								c2.303-3.935,2.529-8.772,4.779-12.766c2.86-5.077,14.221-9.035,12.197-16.487
								C115.162,132.069,113.289,132.771,113.624,134.007L113.624,134.007z"/>
						</g>
					</g>
				</g>
				<g>
					<g>
						<path style="fill:#C29659;" d="M95.244,141.027c-3.394,1.377-3.584,5.311-3.672,8.434c-0.192,6.89-4.728,9.656-11.171,11.035
							c-1.242,0.266-1.083,2.261,0.174,1.992c4.85-1.037,10.259-2.827,12.201-7.868c1.21-3.141-0.422-10.262,3.165-11.717
							C97.131,142.419,96.441,140.541,95.244,141.027L95.244,141.027z"/>
					</g>
				</g>
			</g>
			<g>
				<g>
					<g>
						<g>
							<path style="fill:#C29659;" d="M134.691,135.434c2.956,3.584,4.526,8.608,3.445,13.182c-0.906,3.833-4.826,8.293-3.65,12.469
								c0.501,1.777,1.959,2.915,3.029,4.336c3.146,4.176,2.001,7.989-0.127,12.144c-2.225,4.346-2.094,7.752,0.974,11.629
								c0.415-0.494,0.829-0.988,1.244-1.482c-4.224-2.246-8.177-7.727-7.342-12.63c0.556-3.266,2.12-5.006,0.308-8.248
								c-1.6-2.862-4.211-5.064-5.57-8.115c-1.785-4.007-0.555-7.135,0.329-11.136c1.018-4.606-0.195-8.112-2.869-11.925
								c-0.739-1.053-2.374,0.099-1.632,1.156c2.833,4.04,3.43,7.02,2.121,11.747c-0.75,2.71-1.467,4.968-0.882,7.795
								c1.208,5.843,8.433,10.082,6.965,16.023c-0.967,3.913-1.114,6.615,0.986,10.348c1.551,2.757,3.914,5.296,6.731,6.794
								c0.872,0.464,1.861-0.703,1.244-1.482c-4.981-6.294,1.598-10.733,1.551-17.286c-0.041-5.698-6.62-8.374-4.521-13.991
								c1.826-4.885,4.244-8.972,3.125-14.367c-0.602-2.904-1.93-5.814-3.827-8.115C135.51,133.292,133.87,134.438,134.691,135.434
								L134.691,135.434z"/>
						</g>
					</g>
					<g>
						<g>
							<path style="fill:#C29659;" d="M129.576,137.551c5.383,3.706-0.117,13.268,0.606,18.501
								c1.113,8.053,7.039,13.453,3.381,21.966c-0.508,1.182,1.299,2.039,1.808,0.855c1.341-3.121,2.064-6.658,1.328-10.014
								c-1.092-4.98-4.333-9.121-4.668-14.353c-0.343-5.348,4.91-14.302-1.17-18.488
								C129.809,135.294,128.515,136.82,129.576,137.551L129.576,137.551z"/>
						</g>
					</g>
				</g>
				<g>
					<g>
						<path style="fill:#C29659;" d="M120.454,155.13c-1.525,3.037,0.479,5.913,2.241,8.27c4.371,5.851,3.393,10.29-1.121,16.182
							c-0.782,1.02,0.747,2.31,1.532,1.286c2.839-3.705,5.715-8.173,4.452-13.053c-0.898-3.47-7.047-8.342-5.295-11.83
							C122.842,154.831,121.032,153.98,120.454,155.13L120.454,155.13z"/>
					</g>
				</g>
			</g>
			<g>
				<g>
					<g>
						<g>
							<path style="fill:#C29659;" d="M147.186,125.44c4.56,0.831,9.028,3.731,11.077,7.944c1.7,3.495,1.615,9.196,5.006,11.705
								c1.566,1.158,3.441,1.02,5.236,1.477c4.805,1.223,6.575,4.417,7.646,8.895c1.208,5.051,3.159,7.746,8.405,8.801
								c0.031-0.66,0.062-1.32,0.094-1.98c-6.316,1.316-12.14-1.537-14.829-7.198c-1.883-3.964-4.409-4.258-8.516-5.264
								c-2.995-0.733-6.188-1.624-8.476-3.818c-2.065-1.98-2.581-4.867-3.933-7.284c-2.137-3.821-5.412-5.481-9.547-6.565
								c-1.247-0.327-1.6,1.643-0.362,1.967c4.05,1.062,6.813,2.696,8.678,6.577c0.956,1.99,1.504,4.079,2.925,5.815
								c2.959,3.615,7.501,4.432,11.754,5.586c2.36,0.64,4.241,0.909,5.446,3.267c0.418,0.818,0.585,1.758,1.013,2.577
								c0.935,1.788,2.083,2.955,3.8,4.044c3.444,2.185,8.201,3.124,12.22,2.287c1.049-0.218,1.277-1.742,0.094-1.98
								c-8.129-1.635-5.581-10.003-10.446-14.868c-3.682-3.683-9.809-1.704-11.787-6.938c-1.907-5.046-2.492-9.759-6.952-13.286
								c-2.327-1.84-5.252-3.196-8.185-3.731C146.279,123.241,145.919,125.209,147.186,125.44L147.186,125.44z"/>
						</g>
					</g>
					<g>
						<g>
							<path style="fill:#C29659;" d="M144.092,130.443c3.036-0.321,5.625,2.348,7.086,4.672c2.257,3.59,3.197,7.002,6.647,9.76
								c6.038,4.828,13.309,5.557,15.825,13.989c0.368,1.232,2.242,0.533,1.875-0.698c-0.979-3.282-2.777-6.505-5.557-8.572
								c-3.705-2.754-8.332-3.843-11.782-7.034c-4.467-4.132-6.134-14.971-14.268-14.11
								C142.64,128.586,142.81,130.579,144.092,130.443L144.092,130.443z"/>
						</g>
					</g>
				</g>
				<g>
					<g>
						<path style="fill:#C29659;" d="M148.838,149.496c0.799,3.816,4.835,4.564,8.063,5.252c6.65,1.419,8.326,6.68,8.545,13.013
							c0.044,1.287,2.037,1.109,1.992-0.174c-0.169-4.91-1.092-10.555-5.711-13.26c-2.783-1.63-10.133-1.359-10.896-5.006
							C150.57,148.077,148.574,148.236,148.838,149.496L148.838,149.496z"/>
					</g>
				</g>
			</g>
			<g>
				<g>
					<g>
						<g>
							<path style="fill:#C29659;" d="M150.343,109.682c5.869-3.313,11.921-2.196,17.373,1.326c2.347,1.516,4.877,3.796,7.873,3.395
								c1.575-0.211,2.684-1.196,4.055-1.877c6.419-3.186,9.257,0.259,14.374,3.312c3.361,2.006,6.635,1.328,9.906-0.437
								c-0.448-0.486-0.896-0.973-1.344-1.459c-2.783,3.562-8.342,6.434-12.829,5.352c-2.924-0.705-4.745-2.99-7.968-2.313
								c-2.786,0.585-5.272,2.625-7.901,3.661c-4.407,1.736-7.517,1.031-11.742-0.915c-4.868-2.242-8.526-2.148-13.424,0.122
								c-1.159,0.537-0.474,2.418,0.698,1.875c4.627-2.145,7.996-2.089,12.642,0.228c2.109,1.052,3.943,1.875,6.347,1.901
								c5.838,0.062,12.041-6.663,17.326-4.188c3.715,1.74,6.383,2.407,10.495,0.98c2.977-1.033,5.929-2.911,7.888-5.418
								c0.74-0.946-0.378-1.98-1.344-1.459c-7.101,3.833-10.834-4.188-17.586-4.736c-2.172-0.176-4.028,0.406-5.902,1.41
								c-3.412,1.827-4.816,2.526-8.24,0.372c-4.158-2.616-7.859-5.383-13.009-5.232c-3.053,0.09-6.183,0.966-8.844,2.468
								C148.068,108.682,149.23,110.311,150.343,109.682L150.343,109.682z"/>
						</g>
					</g>
					<g>
						<g>
							<path style="fill:#C29659;" d="M151.471,114.472c4.558-3.86,12.65,2.927,17.645,3.282c8.126,0.577,15.046-4.582,22.753,0.472
								c1.065,0.698,2.362-0.826,1.286-1.532c-2.673-1.753-5.847-3.126-9.092-3.134c-5.06-0.013-9.73,2.604-14.869,2.141
								c-5.197-0.468-13.597-7.333-18.88-2.86C149.341,113.665,150.486,115.306,151.471,114.472L151.471,114.472z"/>
						</g>
					</g>
				</g>
				<g>
					<g>
						<path style="fill:#C29659;" d="M167.052,127.161c2.653,1.975,5.775,0.739,8.39-0.603c6.543-3.359,10.752-1.892,15.9,3.732
							c0.857,0.937,2.502-0.206,1.632-1.156c-3.136-3.426-7.034-7.086-12.043-6.739c-3.652,0.253-9.481,5.551-12.594,3.233
							C167.308,124.862,166.017,126.39,167.052,127.161L167.052,127.161z"/>
					</g>
				</g>
			</g>
			<g>
				<g>
					<g>
						<g>
							<path style="fill:#C29659;" d="M142.486,95.809c1.484-4.007,4.676-7.749,8.721-9.262c3.962-1.481,10.078-0.113,13.398-3.186
								c1.305-1.208,1.623-2.892,2.263-4.464c1.855-4.559,5.017-6.026,9.707-6.467c5.378-0.506,8.521-1.285,10.632-6.68
								c-0.633-0.114-1.267-0.227-1.9-0.34c0.205,6.219-3.645,11.656-9.574,13.164c-4.503,1.146-5.184,3.98-6.999,8.043
								c-1.323,2.962-2.908,5.913-5.805,7.589c-2.305,1.333-5.016,1.355-7.475,2.305c-3.884,1.5-5.953,4.333-7.651,8.026
								c-0.538,1.171,1.27,2.026,1.808,0.855c1.576-3.429,3.391-5.938,7.058-7.197c2.367-0.813,4.889-0.888,7.115-2.124
								c4.344-2.412,5.869-7.021,7.861-11.25c2.024-4.297,4.025-3.613,7.527-5.023c2.24-0.902,3.856-2.659,5.161-4.651
								c1.886-2.878,3.08-6.437,2.965-9.912c-0.032-0.972-1.541-1.259-1.9-0.34c-2.943,7.522-9.998,4.038-15.663,7.262
								c-4.883,2.779-4.073,9.759-9.611,10.912c-5.336,1.111-9.988,0.674-14.32,4.502c-2.21,1.952-4.096,4.601-5.127,7.384
								C140.233,96.154,142.039,97.017,142.486,95.809L142.486,95.809z"/>
						</g>
					</g>
					<g>
						<g>
							<path style="fill:#C29659;" d="M146.291,98.838c0.557-2.778,4.007-4.502,6.345-5.365c3.994-1.474,7.489-1.908,10.806-4.796
								c5.832-5.077,7.751-12.18,16.496-13.193c1.276-0.148,1.107-2.141-0.174-1.992c-3.414,0.396-6.896,1.57-9.436,3.947
								c-3.368,3.152-5.256,7.521-8.973,10.382c-4.75,3.655-15.542,3.228-17.032,10.657
								C144.07,99.741,146.038,100.099,146.291,98.838L146.291,98.838z"/>
						</g>
					</g>
				</g>
				<g>
					<g>
						<path style="fill:#C29659;" d="M166.671,98.28c3.731-0.156,5.175-3.991,6.347-6.903c2.549-6.333,7.869-7.174,14.257-6.293
							c1.273,0.175,1.638-1.792,0.362-1.968c-4.793-0.661-10.472-0.831-13.982,3.116c-2.295,2.582-3.195,9.889-7.158,10.055
							C165.21,96.342,165.387,98.334,166.671,98.28L166.671,98.28z"/>
					</g>
				</g>
			</g>
		</g>
		<g>
			<g>
				<path style="fill:#49392C;" d="M148.596,118.621c-3.218,11.603-14.85,19.083-26.783,16.131
					c-11.713-2.897-19.005-15.098-16.131-26.783c2.811-11.429,14.605-18.76,26.094-16.278
					C144.11,94.355,151.172,106.576,148.596,118.621c-0.27,1.261,1.699,1.618,1.968,0.362c4.604-21.526-20.153-38.614-38.138-24.771
					c-17.303,13.317-8.46,41.833,13.282,43.143c11.762,0.708,21.769-7.244,24.856-18.371
					C150.908,117.741,148.938,117.39,148.596,118.621z"/>
			</g>
		</g>
		<g>
			<g>
				<g>
					<path style="fill:#49392C;" d="M133.266,115.054c-2.225,7.337-13.375,4.505-11.551-2.956
						C123.546,104.603,134.683,107.561,133.266,115.054c-0.239,1.267,1.729,1.626,1.968,0.362c0.803-4.25-1.544-8.546-5.904-9.583
						c-4.201-0.999-8.595,1.692-9.583,5.904c-0.959,4.09,1.511,8.306,5.54,9.473c4.499,1.302,8.647-1.51,9.946-5.794
						C135.607,114.184,133.636,113.836,133.266,115.054z"/>
				</g>
			</g>
			<g>
				<g>
					<path style="fill:#49392C;" d="M128.165,106.636c-1.106,4.506-2.212,9.013-3.317,13.519c-0.307,1.253,1.662,1.607,1.968,0.362
						c1.106-4.506,2.212-9.013,3.318-13.519C130.44,105.745,128.471,105.391,128.165,106.636L128.165,106.636z"/>
				</g>
			</g>
			<g>
				<g>
					<path style="fill:#49392C;" d="M134.431,114.251c-4.506-1.106-9.013-2.212-13.519-3.317c-1.253-0.307-1.607,1.662-0.362,1.967
						c4.506,1.106,9.013,2.212,13.519,3.318C135.322,116.526,135.676,114.557,134.431,114.251L134.431,114.251z"/>
				</g>
			</g>
			<g>
				<g>
					<path style="fill:#49392C;" d="M132.865,109.153c-3.968,2.405-7.937,4.809-11.905,7.214c-1.101,0.667,0.058,2.298,1.156,1.632
						c3.968-2.404,7.937-4.809,11.905-7.214C135.122,110.119,133.963,108.488,132.865,109.153L132.865,109.153z"/>
				</g>
			</g>
			<g>
				<g>
					<path style="fill:#49392C;" d="M131.913,118.951c-2.405-3.968-4.809-7.937-7.214-11.905c-0.667-1.101-2.298,0.058-1.632,1.156
						c2.405,3.968,4.809,7.937,7.214,11.905C130.948,121.208,132.579,120.049,131.913,118.951L131.913,118.951z"/>
				</g>
			</g>
			<g>
				<path style="fill:#49392C;" d="M131.142,114.473c-0.495,2.017-2.531,3.25-4.548,2.756c-2.017-0.495-3.25-2.531-2.756-4.548
					c0.495-2.017,2.531-3.25,4.548-2.756C130.403,110.42,131.637,112.456,131.142,114.473z"/>
			</g>
		</g>
		<g>
			<g>
				<path style="fill:#C29659;" d="M144.355,117.715c0,0-4.192-13.094-14.16-15.54c-9.967-2.446-19.902,7.182-19.902,7.182
					s8.801-5.007,18.768-2.561S144.355,117.715,144.355,117.715z"/>
			</g>
			<g>
				<path style="fill:#C29659;" d="M125.744,120.314c-9.967-2.446-15.451-10.958-15.451-10.958s4.349,13.133,14.317,15.579
					c9.967,2.446,19.745-7.22,19.745-7.22S135.712,122.76,125.744,120.314z"/>
			</g>
		</g>
		<g>
			<g>
				<g>
					<path style="fill:#49392C;" d="M131.879,99.88c0.443-1.803,0.885-3.607,1.327-5.41c0.307-1.253-1.662-1.607-1.968-0.361
						c-0.443,1.803-0.885,3.606-1.327,5.41C129.604,100.771,131.574,101.125,131.879,99.88L131.879,99.88z"/>
				</g>
			</g>
			<g>
				<g>
					<path style="fill:#49392C;" d="M123.469,100.193c-0.327-1.689-0.654-3.378-0.981-5.067c-0.242-1.251-2.237-1.09-1.992,0.174
						c0.327,1.689,0.654,3.378,0.981,5.067C121.719,101.618,123.714,101.457,123.469,100.193L123.469,100.193z"/>
				</g>
			</g>
			<g>
				<g>
					<path style="fill:#49392C;" d="M115.85,102.286c-0.632-1.053-1.264-2.106-1.896-3.159c-0.662-1.103-2.293,0.056-1.632,1.156
						c0.632,1.053,1.264,2.106,1.896,3.159C114.88,104.546,116.51,103.386,115.85,102.286L115.85,102.286z"/>
				</g>
			</g>
			<g>
				<g>
					<path style="fill:#49392C;" d="M138.859,104.756c1.072-1.346,2.143-2.691,3.215-4.037c0.802-1.007-0.728-2.295-1.532-1.286
						c-1.072,1.346-2.143,2.691-3.215,4.037C136.525,104.477,138.055,105.765,138.859,104.756L138.859,104.756z"/>
				</g>
			</g>
			<g>
				<g>
					<path style="fill:#49392C;" d="M144.069,110.664c1.048-0.641,2.095-1.282,3.143-1.922c1.098-0.672-0.06-2.303-1.156-1.632
						c-1.048,0.641-2.095,1.282-3.143,1.923C141.815,109.703,142.973,111.334,144.069,110.664L144.069,110.664z"/>
				</g>
			</g>
		</g>
		<g>
			<g>
				<g>
					<path style="fill:#49392C;" d="M123.191,126.905c-0.442,1.803-0.885,3.606-1.327,5.41c-0.307,1.253,1.662,1.607,1.968,0.362
						c0.443-1.803,0.885-3.607,1.327-5.41C125.466,126.014,123.497,125.66,123.191,126.905L123.191,126.905z"/>
				</g>
			</g>
			<g>
				<g>
					<path style="fill:#49392C;" d="M116.212,122.03c-1.071,1.346-2.143,2.692-3.215,4.037c-0.802,1.007,0.728,2.295,1.532,1.286
						c1.071-1.346,2.143-2.691,3.215-4.037C118.546,122.309,117.016,121.02,116.212,122.03L116.212,122.03z"/>
				</g>
			</g>
			<g>
				<g>
					<path style="fill:#49392C;" d="M111.002,116.122c-1.048,0.641-2.095,1.282-3.143,1.922c-1.098,0.672,0.06,2.303,1.156,1.632
						c1.048-0.641,2.095-1.282,3.143-1.922C113.256,117.082,112.098,115.451,111.002,116.122L111.002,116.122z"/>
				</g>
			</g>
			<g>
				<g>
					<path style="fill:#49392C;" d="M131.602,126.593c0.327,1.689,0.654,3.378,0.981,5.067c0.242,1.251,2.237,1.09,1.992-0.174
						c-0.327-1.689-0.654-3.378-0.981-5.067C133.352,125.167,131.357,125.328,131.602,126.593L131.602,126.593z"/>
				</g>
			</g>
			<g>
				<g>
					<path style="fill:#49392C;" d="M139.221,124.499c0.632,1.053,1.264,2.106,1.896,3.159c0.662,1.103,2.293-0.056,1.632-1.156
						c-0.632-1.053-1.264-2.106-1.896-3.159C140.191,122.239,138.561,123.399,139.221,124.499L139.221,124.499z"/>
				</g>
			</g>
		</g>
	</g>
</g>
</svg>
